<svg width="30" height="27" fill="none" xmlns="http://www.w3.org/2000/svg"><path d="M20.727 27h-18A2.7 2.7 0 0 1 0 24.273V2.727A2.7 2.7 0 0 1 2.727 0h18a2.7 2.7 0 0 1 2.727 2.727v21.546A2.7 2.7 0 0 1 20.727 27Z" fill="#5FBF24"/><path d="M22.636 24.545a7.364 7.364 0 1 0 0-14.728 7.364 7.364 0 0 0 0 14.728Z" fill="#9CD578"/><path d="m18.827 17.194 2.555 2.556 5.064-5.01" stroke="#fff" stroke-width="3" stroke-miterlimit="10"/><path d="M11.684 18.782h-8.25c-.495 0-.89-.436-.89-.981 0-.546.395-.982.89-.982h8.201c.494 0 .89.436.89.982.05.545-.346.982-.84.982ZM7.29 22.68H3.525a.978.978 0 0 1-.982-.982c0-.545.436-.982.982-.982h3.709c.545 0 .981.437.981.982.055.546-.381.982-.927.982Z" fill="#9CD578"/><path d="m12.23 8.753-.669-.893c.001-.079 0-.163-.001-.23l.67-.894a.36.36 0 0 0 .06-.31 5.018 5.018 0 0 0-.493-1.19.36.36 0 0 0-.261-.178l-1.102-.157a4.114 4.114 0 0 0-.167-.167l-.157-1.102a.36.36 0 0 0-.178-.26 5.017 5.017 0 0 0-1.19-.495.36.36 0 0 0-.31.06l-.891.668a4.27 4.27 0 0 0-.236 0l-.89-.668a.36.36 0 0 0-.31-.06 5.017 5.017 0 0 0-1.191.494.36.36 0 0 0-.177.26L4.58 4.735c-.058.054-.113.11-.167.167l-1.102.157a.36.36 0 0 0-.261.177 5.017 5.017 0 0 0-.494 1.191.36.36 0 0 0 .06.31l.67.893c-.002.079 0 .163 0 .23l-.67.894a.36.36 0 0 0-.06.31c.113.416.279.816.493 1.19a.36.36 0 0 0 .262.178l1.102.157c.054.057.11.113.167.167l.157 1.102a.36.36 0 0 0 .177.26c.374.216.774.382 1.19.494a.36.36 0 0 0 .31-.059l.891-.668c.079.002.158.002.236 0l.89.668a.36.36 0 0 0 .31.06 5.014 5.014 0 0 0 1.191-.494.36.36 0 0 0 .178-.261l.157-1.105c.057-.055.116-.115.162-.163l1.106-.158a.36.36 0 0 0 .262-.177c.215-.374.38-.775.493-1.191a.359.359 0 0 0-.06-.31Zm-4.807.972a1.98 1.98 0 1 1 0-3.961 1.98 1.98 0 0 1 0 3.961Z" fill="#fff"/></svg>