<svg width="27" height="33" fill="none" xmlns="http://www.w3.org/2000/svg"><path d="M23.188 32.47H3.05C1.342 32.47 0 31.027 0 29.19V3.28C0 1.443 1.342 0 3.051 0h20.137c1.708 0 3.05 1.443 3.05 3.28v25.91c0 1.837-1.342 3.28-3.05 3.28Z" fill="#FB9650"/><path d="M6.73 16.92c.467.377 1.156.31 1.535-.16l6.062-7.509-1.698-1.37-6.061 7.51a1.081 1.081 0 0 0 .162 1.529Z" fill="#FFD791"/><path d="m12.959 3.656 5.734 4.628-3.183 3.944-5.734-4.63 3.183-3.942Z" fill="#fff"/><path d="m18.912 8.011 1.441 1.163-3.618 4.482-1.441-1.163 3.618-4.482ZM11.736 2.22l1.441 1.163L9.56 7.866l-1.44-1.164 3.617-4.482ZM19.357 23.61H6.055c-.61 0-1.098-.488-1.098-1.098 0-.61.488-1.098 1.098-1.098h13.24c.61 0 1.099.488 1.099 1.098.061.61-.427 1.098-1.037 1.098ZM10.266 28.246h-4.21c-.61 0-1.099-.488-1.099-1.098 0-.61.488-1.099 1.098-1.099h4.15c.61 0 1.098.489 1.098 1.099.061.61-.427 1.098-1.037 1.098Z" fill="#FFD791"/></svg>