<svg width="44" height="44" fill="none" xmlns="http://www.w3.org/2000/svg"><path d="M37.828 6.42c-6.264-.113-13.405 3.156-17.915 8.23A17.02 17.02 0 0 0 8.288 19.6a.663.663 0 0 0-.163.689.668.668 0 0 0 .538.45l5.15.74-.64.714a.662.662 0 0 0 .025.914l8.595 8.594c.125.126.3.2.476.2.162 0 .313-.05.45-.175l.715-.639.739 5.15c.037.25.238.438.476.513a.486.486 0 0 0 .188.025.764.764 0 0 0 .513-.213c3.057-3.057 4.823-7.253 4.911-11.576 5.086-4.522 8.381-11.663 8.23-17.914a.702.702 0 0 0-.663-.652Zm-6.164 11.537a3.32 3.32 0 0 1-2.355.978 3.35 3.35 0 0 1-2.368-.978 3.342 3.342 0 0 1 0-4.723 3.342 3.342 0 0 1 4.723 0 3.342 3.342 0 0 1 0 4.723Z" fill="#7C6FF5"/><path d="M10.054 29.008C8.626 30.436 6.66 36.9 6.446 37.627a.68.68 0 0 0 .163.664c.125.125.3.2.476.2a.962.962 0 0 0 .188-.025c.727-.213 7.19-2.18 8.619-3.608a4.12 4.12 0 0 0 0-5.838 4.12 4.12 0 0 0-5.838-.012Z" fill="#89D6FF"/></svg>