<svg width="48" height="48" fill="none" xmlns="http://www.w3.org/2000/svg"><rect x="11.544" y="8.266" width="24.912" height="31.467" rx="5" fill="#2B77F3"/><path d="M33.376 30.25a.625.625 0 0 1-.625.625h-17.5a.625.625 0 1 1 0-1.25h17.5a.625.625 0 0 1 .625.625Zm-18.102-8.58a.625.625 0 0 1 .274-.702l8.125-5a.625.625 0 0 1 .655 0l8.125 5a.625.625 0 0 1-.328 1.157H30.25v5h1.25a.625.625 0 1 1 0 1.25h-15a.625.625 0 1 1 0-1.25h1.25v-5h-1.874a.625.625 0 0 1-.602-.455Zm9.976 4.83a.625.625 0 1 0 1.25 0v-3.75a.625.625 0 0 0-1.25 0v3.75Zm-3.75 0a.625.625 0 1 0 1.25 0v-3.75a.625.625 0 0 0-1.25 0v3.75Z" fill="#89D6FF"/></svg>