<svg xmlns="http://www.w3.org/2000/svg" viewBox="0 0 500 500"><g id="freepik--background-complete--inject-74"><path d="M383.81,314.69l-2.35-96.61,12.25-10.2-1-2L381.3,214l-5.64-70.56h-2.82s-2,157.56-5.35,163-9.64,8.28-9.64,8.28Z" style="fill:#f5f5f5"></path><path d="M380.33,309.71a1.94,1.94,0,0,1,0-.32c0-.23.05-.53.09-.91.09-.83.21-2,.37-3.52.33-3,.82-7.46,1.26-12.92a157.3,157.3,0,0,0,.44-19.22,97.86,97.86,0,0,0-1.16-11.29c-.64-3.89-1.58-7.88-2.48-12a101.13,101.13,0,0,1-2.09-12.07,46.17,46.17,0,0,1,.22-11.39c.49-3.61,1.23-7,1.89-10.16s1.27-6.11,1.64-8.82a40.54,40.54,0,0,0,0-12.9,28,28,0,0,0-.83-3.43c-.13-.37-.22-.66-.3-.88a1.48,1.48,0,0,1-.08-.3,1.14,1.14,0,0,1,.13.28c.09.22.2.51.34.87a25,25,0,0,1,.93,3.43,39.65,39.65,0,0,1,.14,13c-.34,2.73-.93,5.69-1.58,8.85s-1.37,6.55-1.84,10.14a52,52,0,0,0-.44,5.52,51.5,51.5,0,0,0,.25,5.78,103.11,103.11,0,0,0,2.09,12c.9,4.1,1.83,8.1,2.48,12a98.66,98.66,0,0,1,1.13,11.34,148.35,148.35,0,0,1-.55,19.26c-.47,5.47-1,9.88-1.4,12.92-.2,1.5-.35,2.68-.46,3.51-.06.38-.1.68-.14.91A1.41,1.41,0,0,1,380.33,309.71Z" style="fill:#ebebeb"></path><path d="M361.81,314.62a15.54,15.54,0,0,0,4.39-.45,16.68,16.68,0,0,0,9.3-6.73,24.18,24.18,0,0,0,3.22-7.07,57.85,57.85,0,0,0,1.69-8.72,85.11,85.11,0,0,0,.39-20.3,8.45,8.45,0,0,0-.86-3.31,3.14,3.14,0,0,0-1.11-1.23,2.4,2.4,0,0,0-1.6-.31,4.15,4.15,0,0,0-2.58,2,18,18,0,0,0-1.43,3,22.11,22.11,0,0,0-1.11,12A6.34,6.34,0,0,0,373,286a1.24,1.24,0,0,0,1,.57,1.53,1.53,0,0,0,1.07-.57,5,5,0,0,0,.68-1.07c.2-.38.35-.77.51-1.15a11.83,11.83,0,0,0,.62-2.31,12.31,12.31,0,0,0-1.28-7.83h.21a9.45,9.45,0,0,0-1.8,5.47,10.21,10.21,0,0,0,.11,1.51,2.89,2.89,0,0,1,.07.52,6.56,6.56,0,0,1-.31-2,9.35,9.35,0,0,1,1.72-5.6l.12-.16.1.18a12.42,12.42,0,0,1,1.4,8,10.7,10.7,0,0,1-1.86,4.71,1.9,1.9,0,0,1-1.34.7,1.63,1.63,0,0,1-1.39-.71,6.92,6.92,0,0,1-.93-2.74,22.44,22.44,0,0,1,1.09-12.2,17.85,17.85,0,0,1,1.47-3.06,6.75,6.75,0,0,1,1.17-1.35,3.6,3.6,0,0,1,1.73-.84,3,3,0,0,1,2,.37,3.7,3.7,0,0,1,1.27,1.4,9,9,0,0,1,.91,3.47,83.7,83.7,0,0,1-.43,20.39,58.93,58.93,0,0,1-1.74,8.77,24.25,24.25,0,0,1-3.33,7.14,16.73,16.73,0,0,1-9.53,6.72,13.07,13.07,0,0,1-3.29.38c-.38,0-.67,0-.86,0Z" style="fill:#ebebeb"></path><path d="M377.12,205.08l-.39-.3-1.2-1,.1,0a8,8,0,0,0-.57,2.63,8.16,8.16,0,0,0,.69,3.76,3.93,3.93,0,0,0,.57,1,1.12,1.12,0,0,0,1,.39,1.41,1.41,0,0,0,.87-.76,3.62,3.62,0,0,0,.39-1.23,20.58,20.58,0,0,0,.05-5.83,22.22,22.22,0,0,0-.7-3.16,6.8,6.8,0,0,0-.63-1.56,3.07,3.07,0,0,0-1.15-1.22,1.71,1.71,0,0,0-1.63,0,3,3,0,0,0-1.15,1.31,8.4,8.4,0,0,0-.6,1.75c-.18.6-.29,1.22-.44,1.85-1,5.05-.41,10.61.23,16.32a153.37,153.37,0,0,1,1,19.45,148.23,148.23,0,0,1-1,15.86c-.55,4.5-1.17,8.11-1.68,10.6-.23,1.25-.46,2.21-.6,2.86-.07.3-.13.55-.18.74a1,1,0,0,1-.07.25.86.86,0,0,1,0-.26l.12-.75c.11-.66.32-1.62.52-2.87.45-2.49,1-6.11,1.52-10.6s.89-9.87.94-15.84a156.63,156.63,0,0,0-1-19.39c-.64-5.71-1.2-11.32-.19-16.44.14-.64.26-1.27.44-1.88a8.56,8.56,0,0,1,.64-1.82,3.38,3.38,0,0,1,1.33-1.48,2.18,2.18,0,0,1,2.06,0,3.41,3.41,0,0,1,1.31,1.39,7.49,7.49,0,0,1,.65,1.63,20.35,20.35,0,0,1,.68,3.22,20.06,20.06,0,0,1-.1,5.92,3.61,3.61,0,0,1-.43,1.31,1.71,1.71,0,0,1-1.09.9,1.36,1.36,0,0,1-1.28-.5,3.83,3.83,0,0,1-.61-1,8.32,8.32,0,0,1,0-6.53l0-.08.07.06,1.16,1A1.93,1.93,0,0,1,377.12,205.08Z" style="fill:#ebebeb"></path><path d="M376.19,77.25c0,1-22.14,59.73-22.14,59.73l11.07-9.48-15.95,41.09,10.51-12.33-16.79,52,10.41-5.85-10.51,36.34,9-9.48-9,27.18,71.3-4.42-16.89-51.2,10.2,9.48L394.2,173l6.75,3.16-15.38-48,7.13,4.11Z" style="fill:#e0e0e0"></path><path d="M455.69,317.88l-1.84-68,9.57-7.18-.75-1.42-8.94,5.73-4.42-49.64h-2.2s-1.56,110.84-4.18,114.64-7.53,5.83-7.53,5.83Z" style="fill:#f5f5f5"></path><path d="M453,314.38a.92.92,0,0,1,0-.22c0-.16,0-.38.07-.65.06-.58.16-1.41.29-2.47.25-2.15.64-5.25,1-9.09a99.49,99.49,0,0,0,.34-13.52,61.85,61.85,0,0,0-.9-7.95c-.51-2.73-1.23-5.54-1.94-8.42a65.49,65.49,0,0,1-1.64-8.5,33.27,33.27,0,0,1-.18-4.09,31.19,31.19,0,0,1,.36-3.92c.38-2.54,1-4.92,1.48-7.14s1-4.3,1.27-6.21a25.67,25.67,0,0,0,0-9.08,18.77,18.77,0,0,0-.66-2.41l-.22-.62a1,1,0,0,1-.07-.21s0,.06.1.2.15.35.27.61a17.18,17.18,0,0,1,.72,2.41,25.1,25.1,0,0,1,.12,9.12c-.27,1.92-.73,4-1.24,6.23s-1.07,4.61-1.44,7.13a29.83,29.83,0,0,0-.15,8,65.83,65.83,0,0,0,1.63,8.46c.71,2.88,1.44,5.69,1.94,8.44a60.31,60.31,0,0,1,.89,8,95.3,95.3,0,0,1-.43,13.54c-.37,3.85-.8,7-1.1,9.09-.15,1.06-.27,1.89-.36,2.47l-.1.64Z" style="fill:#ebebeb"></path><path d="M438.49,317.83a12.72,12.72,0,0,0,10.7-5.05,16.26,16.26,0,0,0,2.52-5,36.71,36.71,0,0,0,1.32-6.14,54,54,0,0,0,.3-14.28,5.55,5.55,0,0,0-.67-2.33,2.29,2.29,0,0,0-.86-.86,2.17,2.17,0,0,0-1.26-.22,3.22,3.22,0,0,0-2,1.4,11.1,11.1,0,0,0-1.12,2.09,14.13,14.13,0,0,0-.87,8.44,4.41,4.41,0,0,0,.65,1.82,1,1,0,0,0,.82.4,1.26,1.26,0,0,0,.84-.4,3.58,3.58,0,0,0,.53-.76c.15-.26.28-.54.4-.8a8,8,0,0,0-.52-7.14h.17a6.16,6.16,0,0,0-1.41,3.84,8,8,0,0,0,.08,1.07,1.71,1.71,0,0,1,.06.37,4.23,4.23,0,0,1-.24-1.43,6.08,6.08,0,0,1,1.35-3.94l.09-.12.08.13a8,8,0,0,1,1.09,5.61,7.19,7.19,0,0,1-1.45,3.32,1.58,1.58,0,0,1-1.06.49,1.32,1.32,0,0,1-1.08-.5,4.43,4.43,0,0,1-.72-1.92,14.22,14.22,0,0,1,.85-8.59,11.49,11.49,0,0,1,1.15-2.15,4.52,4.52,0,0,1,.91-1,2.87,2.87,0,0,1,1.35-.59,2.47,2.47,0,0,1,1.52.26,2.77,2.77,0,0,1,1,1,5.9,5.9,0,0,1,.71,2.44,53.16,53.16,0,0,1-.34,14.35,36.48,36.48,0,0,1-1.36,6.17,16.24,16.24,0,0,1-2.6,5,13.17,13.17,0,0,1-7.45,4.73,11.11,11.11,0,0,1-2.57.27c-.3,0-.52,0-.67,0Z" style="fill:#ebebeb"></path><path d="M450.46,240.77l-.31-.21-.94-.68.08,0a5.5,5.5,0,0,0-.45,1.85,5.33,5.33,0,0,0,.55,2.65,2.51,2.51,0,0,0,.45.68.86.86,0,0,0,.78.27,1.06,1.06,0,0,0,.68-.53,2.16,2.16,0,0,0,.3-.86,12.75,12.75,0,0,0,0-4.1,13.38,13.38,0,0,0-.54-2.23,5.14,5.14,0,0,0-.49-1.1,2.24,2.24,0,0,0-.9-.85,1.47,1.47,0,0,0-1.28,0,2.3,2.3,0,0,0-.9.93,5.42,5.42,0,0,0-.47,1.22c-.14.43-.22.87-.34,1.31-.76,3.55-.32,7.46.18,11.48a97.23,97.23,0,0,1,.78,13.68,95.54,95.54,0,0,1-.82,11.16c-.43,3.16-.91,5.71-1.31,7.46-.18.87-.36,1.55-.47,2-.06.21-.1.38-.14.52s-.05.17-.06.17a1.23,1.23,0,0,1,0-.18l.1-.52c.09-.47.25-1.14.41-2,.35-1.76.79-4.3,1.19-7.47a101.43,101.43,0,0,0,.73-11.14,99.94,99.94,0,0,0-.8-13.64c-.5-4-.94-8-.15-11.57.11-.44.2-.89.34-1.32a5.76,5.76,0,0,1,.5-1.28,2.54,2.54,0,0,1,1-1,1.88,1.88,0,0,1,1.62,0,2.43,2.43,0,0,1,1,1,4.66,4.66,0,0,1,.51,1.15,13.58,13.58,0,0,1,.54,2.27,13.06,13.06,0,0,1-.08,4.16,2.39,2.39,0,0,1-.34.92,1.25,1.25,0,0,1-.85.63,1.12,1.12,0,0,1-1-.34,2.67,2.67,0,0,1-.46-.74,5.26,5.26,0,0,1,0-4.59l0-.06,0,0,.9.72C450.38,240.69,450.47,240.76,450.46,240.77Z" style="fill:#ebebeb"></path><path d="M449.73,150.84c0,.67-17.31,42-17.31,42l8.66-6.67L428.61,215.1l8.21-8.68L423.7,243l8.14-4.11-8.22,25.56,7-6.67-7,19.12,55.73-3.11-13.2-36,8,6.67-10.31-26.23,5.28,2.22-12-33.79,5.57,2.89Z" style="fill:#e0e0e0"></path><path d="M41.36,317.88l-1.84-68,9.57-7.18-.75-1.42-8.94,5.73L35,197.41h-2.2S31.22,308.25,28.6,312.05s-7.53,5.83-7.53,5.83Z" style="fill:#f5f5f5"></path><path d="M38.64,314.38a.92.92,0,0,1,0-.22l.07-.65c.06-.58.16-1.41.29-2.47.25-2.15.64-5.25,1-9.09a99.49,99.49,0,0,0,.34-13.52,61.85,61.85,0,0,0-.9-7.95c-.51-2.73-1.24-5.54-1.94-8.42a65.49,65.49,0,0,1-1.64-8.5,33.27,33.27,0,0,1-.18-4.09,31.19,31.19,0,0,1,.36-3.92c.38-2.54,1-4.92,1.48-7.14s1-4.3,1.27-6.21a25.67,25.67,0,0,0,0-9.08,18.77,18.77,0,0,0-.66-2.41l-.22-.62a1,1,0,0,1-.07-.21s0,.06.1.2.15.35.26.61a15.73,15.73,0,0,1,.73,2.41,25.1,25.1,0,0,1,.12,9.12c-.27,1.92-.73,4-1.24,6.23s-1.07,4.61-1.44,7.13a29.83,29.83,0,0,0-.15,8A65.83,65.83,0,0,0,37.85,272c.71,2.88,1.44,5.69,1.94,8.44a60.31,60.31,0,0,1,.89,8A95.3,95.3,0,0,1,40.25,302c-.37,3.85-.8,7-1.1,9.09-.15,1.06-.27,1.89-.36,2.47,0,.27-.08.48-.1.64Z" style="fill:#ebebeb"></path><path d="M24.16,317.83a12.72,12.72,0,0,0,10.7-5.05,16.26,16.26,0,0,0,2.52-5,36.71,36.71,0,0,0,1.32-6.14,54,54,0,0,0,.3-14.28,5.55,5.55,0,0,0-.67-2.33,2.29,2.29,0,0,0-.86-.86,2.17,2.17,0,0,0-1.26-.22,3.22,3.22,0,0,0-2,1.4,11.1,11.1,0,0,0-1.12,2.09,14.13,14.13,0,0,0-.87,8.44,4.41,4.41,0,0,0,.65,1.82,1,1,0,0,0,.82.4,1.28,1.28,0,0,0,.84-.4,3.58,3.58,0,0,0,.53-.76c.15-.26.28-.54.4-.8a8,8,0,0,0-.52-7.14h.17a6.16,6.16,0,0,0-1.41,3.84,8,8,0,0,0,.08,1.07,1.71,1.71,0,0,1,.06.37,4.23,4.23,0,0,1-.24-1.43A6.08,6.08,0,0,1,34.94,289l.09-.12.08.13a8,8,0,0,1,1.09,5.61,7.19,7.19,0,0,1-1.45,3.32,1.58,1.58,0,0,1-1.06.49,1.32,1.32,0,0,1-1.08-.5,4.43,4.43,0,0,1-.72-1.92,14.22,14.22,0,0,1,.85-8.59,12,12,0,0,1,1.14-2.15,4.85,4.85,0,0,1,.92-1,2.87,2.87,0,0,1,1.35-.59,2.47,2.47,0,0,1,1.52.26,2.77,2.77,0,0,1,1,1,5.9,5.9,0,0,1,.71,2.44A53.16,53.16,0,0,1,39,301.71a36.48,36.48,0,0,1-1.36,6.17,16.24,16.24,0,0,1-2.6,5,13.17,13.17,0,0,1-7.45,4.73,11.11,11.11,0,0,1-2.57.27c-.3,0-.52,0-.67,0Z" style="fill:#ebebeb"></path><path d="M36.13,240.77l-.31-.21-.94-.68.08,0a5.5,5.5,0,0,0-.45,1.85,5.33,5.33,0,0,0,.55,2.65,2.51,2.51,0,0,0,.45.68.86.86,0,0,0,.78.27,1.06,1.06,0,0,0,.68-.53,2.16,2.16,0,0,0,.3-.86,12.75,12.75,0,0,0,0-4.1,13.38,13.38,0,0,0-.54-2.23,5.14,5.14,0,0,0-.49-1.1,2.24,2.24,0,0,0-.9-.85,1.47,1.47,0,0,0-1.28,0,2.24,2.24,0,0,0-.9.93,5.42,5.42,0,0,0-.47,1.22c-.14.43-.22.87-.34,1.31-.76,3.55-.32,7.46.18,11.48a98.76,98.76,0,0,1,.78,13.68,95.54,95.54,0,0,1-.82,11.16c-.43,3.16-.91,5.71-1.31,7.46-.18.87-.36,1.55-.47,2-.06.21-.1.38-.14.52s-.05.17-.06.17a1.23,1.23,0,0,1,0-.18c0-.13.06-.31.1-.52.09-.47.25-1.14.41-2,.35-1.76.79-4.3,1.19-7.47A101.43,101.43,0,0,0,33,264.25a99.94,99.94,0,0,0-.8-13.64c-.5-4-.94-8-.15-11.57.11-.44.2-.89.34-1.32a5.76,5.76,0,0,1,.5-1.28,2.54,2.54,0,0,1,1-1,1.88,1.88,0,0,1,1.62,0,2.43,2.43,0,0,1,1,1,4.66,4.66,0,0,1,.51,1.15,13.58,13.58,0,0,1,.54,2.27,13.06,13.06,0,0,1-.08,4.16,2.39,2.39,0,0,1-.34.92,1.25,1.25,0,0,1-.85.63,1.12,1.12,0,0,1-1-.34,2.67,2.67,0,0,1-.46-.74,5.26,5.26,0,0,1,0-4.59l0-.06.05,0,.9.72C36.05,240.69,36.14,240.76,36.13,240.77Z" style="fill:#ebebeb"></path><path d="M35.4,150.84c0,.67-17.31,42-17.31,42l8.66-6.67L14.28,215.1l8.21-8.68L9.37,243l8.14-4.11L9.29,264.45l7-6.67-7,19.12L65,273.79l-13.2-36,8,6.67L49.48,218.21l5.28,2.22-12-33.79,5.57,2.89Z" style="fill:#e0e0e0"></path><path d="M111.52,317.67l-2.45-90.54,12.76-9.56-1-1.89-11.91,7.63L103,157.18H100.1S98,304.84,94.52,309.91s-10,7.76-10,7.76Z" style="fill:#f5f5f5"></path><path d="M107.9,313a.91.91,0,0,1,0-.29c0-.21,0-.5.09-.86.09-.78.22-1.88.39-3.29.34-2.86.85-7,1.3-12.12a129.52,129.52,0,0,0,.46-18,81.08,81.08,0,0,0-1.2-10.58c-.67-3.64-1.64-7.38-2.59-11.22a87.94,87.94,0,0,1-2.17-11.32,38.9,38.9,0,0,1,.23-10.67c.51-3.39,1.28-6.56,2-9.52s1.32-5.73,1.7-8.27a34.43,34.43,0,0,0,0-12.09,25.35,25.35,0,0,0-.88-3.22c-.12-.34-.22-.61-.3-.82a1.37,1.37,0,0,1-.08-.28,1.45,1.45,0,0,1,.13.27l.35.81a21.11,21.11,0,0,1,1,3.21,33.38,33.38,0,0,1,.15,12.15c-.36,2.56-1,5.34-1.64,8.3s-1.43,6.14-1.92,9.5a43.55,43.55,0,0,0-.46,5.18,45.09,45.09,0,0,0,.25,5.41,89.71,89.71,0,0,0,2.18,11.27c1,3.84,1.92,7.59,2.58,11.25a80,80,0,0,1,1.18,10.63,127.19,127.19,0,0,1-.56,18.05c-.5,5.12-1.07,9.25-1.47,12.11-.2,1.4-.37,2.51-.48,3.28-.06.36-.1.64-.14.85A1,1,0,0,1,107.9,313Z" style="fill:#ebebeb"></path><path d="M88.61,317.61a17.26,17.26,0,0,0,4.58-.43,17.46,17.46,0,0,0,9.67-6.3,21.6,21.6,0,0,0,3.36-6.62,50.19,50.19,0,0,0,1.76-8.18,71.65,71.65,0,0,0,.41-19,7.46,7.46,0,0,0-.9-3.11,3.17,3.17,0,0,0-1.15-1.15,2.81,2.81,0,0,0-1.67-.29,4.29,4.29,0,0,0-2.69,1.87,15.88,15.88,0,0,0-1.49,2.78,18.8,18.8,0,0,0-1.16,11.24,5.76,5.76,0,0,0,.88,2.43,1.35,1.35,0,0,0,1.09.53,1.7,1.7,0,0,0,1.11-.54,4.42,4.42,0,0,0,.71-1,12,12,0,0,0,.53-1.08,10.57,10.57,0,0,0-.69-9.5h.22a8.18,8.18,0,0,0-1.87,5.12,8,8,0,0,0,.11,1.43,3.33,3.33,0,0,1,.08.48,5.46,5.46,0,0,1-.33-1.91,8.11,8.11,0,0,1,1.8-5.24l.12-.16.1.17a10.67,10.67,0,0,1,1.46,7.48,9.51,9.51,0,0,1-1.94,4.41,2.05,2.05,0,0,1-1.4.67,1.8,1.8,0,0,1-1.45-.67,6.06,6.06,0,0,1-1-2.57A19.06,19.06,0,0,1,100,277a16.2,16.2,0,0,1,1.53-2.86,6.62,6.62,0,0,1,1.22-1.27,3.85,3.85,0,0,1,1.79-.78,3.29,3.29,0,0,1,2,.35,3.56,3.56,0,0,1,1.33,1.31,7.79,7.79,0,0,1,.94,3.25,71,71,0,0,1-.44,19.11,50.27,50.27,0,0,1-1.82,8.22,22,22,0,0,1-3.46,6.69,17.63,17.63,0,0,1-9.92,6.3,15,15,0,0,1-3.43.36c-.4,0-.7-.05-.9-.06Z" style="fill:#ebebeb"></path><path d="M104.56,215l-.42-.28-1.25-.91.11,0a7,7,0,0,0,.13,6,3.29,3.29,0,0,0,.6.9,1.17,1.17,0,0,0,1,.37,1.41,1.41,0,0,0,.91-.71,3.09,3.09,0,0,0,.4-1.15,16.86,16.86,0,0,0,0-5.46,18.32,18.32,0,0,0-.72-3,6.37,6.37,0,0,0-.66-1.46,3,3,0,0,0-1.19-1.14,1.94,1.94,0,0,0-1.71,0,2.94,2.94,0,0,0-1.19,1.23A7,7,0,0,0,100,211c-.19.57-.3,1.15-.45,1.74-1,4.73-.43,9.94.23,15.3a130.32,130.32,0,0,1,1,18.22,126.85,126.85,0,0,1-1.09,14.86c-.57,4.22-1.22,7.61-1.74,9.94-.24,1.17-.49,2.07-.63,2.68l-.18.69a1.29,1.29,0,0,1-.08.24.77.77,0,0,1,0-.25c0-.18.07-.41.13-.7.11-.61.33-1.52.54-2.69.46-2.33,1.06-5.73,1.58-9.94a135.84,135.84,0,0,0,1-14.84,134.7,134.7,0,0,0-1.07-18.17c-.67-5.36-1.25-10.61-.2-15.41.15-.6.27-1.19.46-1.76a8,8,0,0,1,.66-1.71,3.38,3.38,0,0,1,1.39-1.39,2.53,2.53,0,0,1,2.15,0,3.42,3.42,0,0,1,1.36,1.3,6.85,6.85,0,0,1,.67,1.53,17.41,17.41,0,0,1,.61,8.56,3.27,3.27,0,0,1-.45,1.23,1.69,1.69,0,0,1-1.13.84,1.49,1.49,0,0,1-1.34-.46,3.65,3.65,0,0,1-.63-1,7.07,7.07,0,0,1-.67-3.63,6.7,6.7,0,0,1,.68-2.49l0-.08.07.06,1.21.95A2.32,2.32,0,0,1,104.56,215Z" style="fill:#ebebeb"></path><path d="M103.58,95.15c0,.89-23,56-23,56l11.52-8.89-16.6,38.51,10.94-11.56L68.91,217.92l10.84-5.48L68.81,246.5l9.37-8.89-9.37,25.47,74.24-4.14-17.59-48,10.62,8.88-13.74-35,7,3-16-45,7.42,3.85Z" style="fill:#e0e0e0"></path><path d="M323.1,70.14c.73-5.28-6.73-9.62-12.33-10.08-2.67-.21-5.45.2-8-.68-5.48-1.92-7.67-9-13-11.26-4-1.69-8.6-.18-12.48,1.77s-7.71,4.41-12,4.68c-3.77.25-7.86-1.15-11.16.69-2.46,1.37-3.75,4.2-6,5.87s-5.11,2-7.86,2.13-5.59.18-8.09,1.33-4.58,3.79-4.06,6.49Z" style="fill:#f5f5f5"></path><path d="M104.68,114.51c.66-4.77-6.08-8.7-11.14-9.11-2.42-.19-4.92.18-7.21-.62-5-1.73-6.93-8.13-11.77-10.17-3.61-1.52-7.77-.17-11.28,1.6s-7,4-10.88,4.23c-3.4.22-7.1-1-10.08.62-2.22,1.24-3.38,3.8-5.43,5.31s-4.61,1.79-7.1,1.92-5.05.16-7.31,1.2-4.14,3.42-3.67,5.87Z" style="fill:#f5f5f5"></path><path d="M470.15,102c.66-4.78-6.08-8.7-11.14-9.11-2.41-.2-4.92.17-7.21-.62-4.95-1.73-6.93-8.13-11.77-10.17-3.61-1.53-7.77-.17-11.27,1.59s-7,4-10.89,4.24c-3.4.22-7.1-1.05-10.08.62-2.22,1.24-3.38,3.79-5.43,5.3s-4.61,1.79-7.09,1.93-5.06.16-7.32,1.19-4.13,3.43-3.66,5.87Z" style="fill:#f5f5f5"></path><path d="M182.13,54.8c.61-4.39-5.59-8-10.25-8.38-2.22-.18-4.53.16-6.64-.57-4.56-1.59-6.38-7.49-10.83-9.36-3.33-1.41-7.15-.16-10.38,1.47s-6.41,3.66-10,3.89c-3.13.2-6.53-1-9.28.57-2,1.14-3.11,3.5-5,4.89s-4.25,1.64-6.53,1.77-4.66.15-6.74,1.1-3.8,3.15-3.37,5.4Z" style="fill:#ebebeb"></path><path d="M415.44,45.22c.4-2.91-3.69-5.3-6.77-5.54-1.47-.12-3,.1-4.39-.38-3-1-4.21-4.95-7.16-6.19-2.19-.92-4.72-.1-6.86,1s-4.23,2.43-6.61,2.58c-2.08.13-4.33-.64-6.14.37-1.35.76-2.05,2.31-3.3,3.23a7.86,7.86,0,0,1-4.32,1.17,12.34,12.34,0,0,0-4.45.73,3.51,3.51,0,0,0-2.22,3.57Z" style="fill:#e0e0e0"></path></g><g id="freepik--Floor--inject-74"><path d="M484.47,476.45c0,.14-103.4.26-230.92.26s-230.94-.12-230.94-.26,103.38-.26,230.94-.26S484.47,476.3,484.47,476.45Z" style="fill:#263238"></path></g><g id="freepik--Trees--inject-74"><path d="M428.25,317.7l-2.35-96.61,12.24-10.2-1-2L425.74,217l-5.65-70.56h-2.81s-2,157.56-5.36,163-9.63,8.28-9.63,8.28Z" style="fill:#ae7461"></path><path d="M424.77,312.72a1.11,1.11,0,0,1,0-.32c0-.23.05-.53.08-.91.09-.83.22-2,.38-3.52.32-3.05.82-7.46,1.25-12.92a155.31,155.31,0,0,0,.44-19.22,95.62,95.62,0,0,0-1.15-11.29c-.65-3.89-1.58-7.88-2.49-12a103.18,103.18,0,0,1-2.09-12.07,54.64,54.64,0,0,1-.23-5.82,50,50,0,0,1,.46-5.57c.48-3.61,1.22-7,1.89-10.16s1.26-6.11,1.63-8.82a40.59,40.59,0,0,0,0-12.9,27.66,27.66,0,0,0-.84-3.43l-.29-.88a1.48,1.48,0,0,1-.08-.3,2,2,0,0,1,.13.28l.33.87a25,25,0,0,1,.93,3.43,39.32,39.32,0,0,1,.15,13c-.35,2.73-.93,5.69-1.58,8.85s-1.37,6.55-1.84,10.14a49.53,49.53,0,0,0-.44,5.52,51.46,51.46,0,0,0,.24,5.78,103.11,103.11,0,0,0,2.09,12c.91,4.1,1.84,8.1,2.48,12a94,94,0,0,1,1.13,11.33,150.32,150.32,0,0,1-.54,19.26c-.48,5.47-1,9.88-1.41,12.92-.19,1.51-.35,2.68-.46,3.51,0,.38-.1.68-.13.91A3,3,0,0,1,424.77,312.72Z" style="fill:#6f4439"></path><path d="M406.24,317.63a15.6,15.6,0,0,0,4.4-.45,16.7,16.7,0,0,0,9.29-6.73,24.46,24.46,0,0,0,3.23-7.07,59.15,59.15,0,0,0,1.68-8.72,84.08,84.08,0,0,0,.39-20.3,8.62,8.62,0,0,0-.85-3.31,3.22,3.22,0,0,0-1.11-1.23,2.44,2.44,0,0,0-1.61-.31,4.13,4.13,0,0,0-2.57,2,18.06,18.06,0,0,0-1.44,3,22.21,22.21,0,0,0-1.11,12,6.65,6.65,0,0,0,.84,2.58,1.25,1.25,0,0,0,1.05.57,1.51,1.51,0,0,0,1.06-.57,4.31,4.31,0,0,0,.68-1.07,11.55,11.55,0,0,0,.51-1.15,11.83,11.83,0,0,0,.62-2.31,12.25,12.25,0,0,0-1.28-7.83h.22a9.48,9.48,0,0,0-1.81,5.47,12,12,0,0,0,.11,1.52,3.76,3.76,0,0,1,.08.51,6.71,6.71,0,0,1-.32-2,9.38,9.38,0,0,1,1.73-5.6l.12-.16.1.18a12.5,12.5,0,0,1,1.4,8,11,11,0,0,1-1.86,4.71,2,2,0,0,1-1.35.71,1.69,1.69,0,0,1-1.39-.72,6.9,6.9,0,0,1-.92-2.74,22.35,22.35,0,0,1,1.09-12.2,17.14,17.14,0,0,1,1.47-3.06,6.45,6.45,0,0,1,1.17-1.35,3.57,3.57,0,0,1,1.72-.84,2.94,2.94,0,0,1,1.95.37,3.54,3.54,0,0,1,1.27,1.4,8.68,8.68,0,0,1,.91,3.47,83.69,83.69,0,0,1-.43,20.39,57.68,57.68,0,0,1-1.74,8.77,24.49,24.49,0,0,1-3.32,7.14,16.71,16.71,0,0,1-9.53,6.72,13.19,13.19,0,0,1-3.3.38c-.37,0-.66,0-.86-.05Z" style="fill:#6f4439"></path><path d="M421.56,208.09a2.42,2.42,0,0,1-.4-.3l-1.2-1,.1,0a8.54,8.54,0,0,0-.57,2.63,8.18,8.18,0,0,0,.7,3.76,3.39,3.39,0,0,0,.57,1,1.07,1.07,0,0,0,1,.39,1.43,1.43,0,0,0,.88-.76,3.4,3.4,0,0,0,.38-1.23,20.22,20.22,0,0,0,.05-5.83,19.77,19.77,0,0,0-.7-3.16,7.25,7.25,0,0,0-.62-1.56,3.14,3.14,0,0,0-1.15-1.22,1.73,1.73,0,0,0-1.64,0,3.06,3.06,0,0,0-1.15,1.31,8.4,8.4,0,0,0-.6,1.75c-.18.6-.29,1.23-.43,1.85-1,5.06-.42,10.61.22,16.32a153.46,153.46,0,0,1,1,19.45A150.66,150.66,0,0,1,417,257.34c-.54,4.5-1.17,8.12-1.67,10.6-.23,1.25-.47,2.21-.61,2.86-.07.3-.13.55-.17.74a.76.76,0,0,1-.08.25.86.86,0,0,1,0-.26c0-.19.07-.44.13-.75.11-.65.31-1.62.51-2.87.45-2.49,1-6.11,1.53-10.6s.88-9.87.93-15.84a158.5,158.5,0,0,0-1-19.39c-.65-5.71-1.21-11.31-.2-16.44.15-.64.26-1.27.45-1.88a8,8,0,0,1,.64-1.82,3.3,3.3,0,0,1,1.32-1.48,2.2,2.2,0,0,1,2.07,0,3.52,3.52,0,0,1,1.3,1.39,7,7,0,0,1,.65,1.63,20.4,20.4,0,0,1,.69,3.22,20.76,20.76,0,0,1-.1,5.92,4,4,0,0,1-.43,1.31,1.71,1.71,0,0,1-1.1.9,1.38,1.38,0,0,1-1.28-.5,3.55,3.55,0,0,1-.6-1,8.27,8.27,0,0,1,0-6.53l0-.08.07.06,1.15,1A2.36,2.36,0,0,1,421.56,208.09Z" style="fill:#6f4439"></path><path d="M420.62,80.26c0,.95-22.14,59.73-22.14,59.73l11.07-9.48L393.6,171.6l10.51-12.33-16.79,52,10.41-5.85-10.51,36.34,9-9.48-9,27.18,71.3-4.42-16.89-51.2,10.2,9.48L438.63,176l6.76,3.16-15.39-48,7.13,4.11Z" style="fill:#455a64"></path><path d="M148.77,317.7l-2.35-96.61,12.25-10.2-1-2L146.26,217l-5.65-70.56H137.8s-2,157.56-5.36,163-9.63,8.28-9.63,8.28Z" style="fill:#ae7461"></path><path d="M145.29,312.72a1.11,1.11,0,0,1,0-.32c0-.23,0-.53.09-.91.09-.83.21-2,.37-3.52.32-3.05.82-7.46,1.25-12.92a155.31,155.31,0,0,0,.44-19.22,95.62,95.62,0,0,0-1.15-11.29c-.65-3.89-1.58-7.88-2.48-12a103.25,103.25,0,0,1-2.1-12.07,54.64,54.64,0,0,1-.23-5.82,50,50,0,0,1,.46-5.57c.49-3.61,1.23-7,1.89-10.16s1.27-6.11,1.63-8.82a40.59,40.59,0,0,0,0-12.9,27.66,27.66,0,0,0-.84-3.43l-.29-.88a1.48,1.48,0,0,1-.08-.3,1.14,1.14,0,0,1,.13.28l.33.87a23.62,23.62,0,0,1,.93,3.43,39.32,39.32,0,0,1,.15,13c-.35,2.73-.93,5.69-1.58,8.85s-1.37,6.55-1.84,10.14a52,52,0,0,0-.44,5.52,54,54,0,0,0,.24,5.78,103.19,103.19,0,0,0,2.1,12c.9,4.1,1.83,8.1,2.47,12a96.19,96.19,0,0,1,1.14,11.33,152,152,0,0,1-.55,19.26c-.48,5.47-1,9.88-1.4,12.92-.2,1.51-.36,2.68-.47,3.51,0,.38-.1.68-.13.91A1.41,1.41,0,0,1,145.29,312.72Z" style="fill:#6f4439"></path><path d="M126.77,317.63a15.55,15.55,0,0,0,4.39-.45,16.67,16.67,0,0,0,9.29-6.73,23.94,23.94,0,0,0,3.23-7.07,59.12,59.12,0,0,0,1.69-8.72,85.11,85.11,0,0,0,.39-20.3,8.81,8.81,0,0,0-.86-3.31,3.22,3.22,0,0,0-1.11-1.23,2.44,2.44,0,0,0-1.61-.31,4.16,4.16,0,0,0-2.57,2,17.24,17.24,0,0,0-1.43,3,22.12,22.12,0,0,0-1.12,12,6.65,6.65,0,0,0,.84,2.58,1.26,1.26,0,0,0,1,.57,1.51,1.51,0,0,0,1.06-.57,4.66,4.66,0,0,0,.69-1.07c.2-.38.35-.77.51-1.15a13.43,13.43,0,0,0,.62-2.31,12.32,12.32,0,0,0-1.29-7.83h.22a9.38,9.38,0,0,0-1.8,5.47,9.13,9.13,0,0,0,.11,1.52,4.62,4.62,0,0,1,.07.51,6.71,6.71,0,0,1-.32-2,9.45,9.45,0,0,1,1.73-5.6l.12-.16.1.18a12.5,12.5,0,0,1,1.4,8,10.82,10.82,0,0,1-1.86,4.71A2,2,0,0,1,139,290a1.69,1.69,0,0,1-1.39-.72,7.06,7.06,0,0,1-.92-2.74,22.44,22.44,0,0,1,1.09-12.2,17.14,17.14,0,0,1,1.47-3.06,6.45,6.45,0,0,1,1.17-1.35,3.57,3.57,0,0,1,1.72-.84,2.94,2.94,0,0,1,2,.37,3.64,3.64,0,0,1,1.28,1.4,9,9,0,0,1,.91,3.47,83.67,83.67,0,0,1-.44,20.39,57.7,57.7,0,0,1-1.73,8.77,24.51,24.51,0,0,1-3.33,7.14,16.71,16.71,0,0,1-9.53,6.72,13.12,13.12,0,0,1-3.29.38c-.38,0-.67,0-.86-.05A1.09,1.09,0,0,1,126.77,317.63Z" style="fill:#6f4439"></path><path d="M142.08,208.09a3.09,3.09,0,0,1-.4-.3l-1.2-1,.1,0a8.54,8.54,0,0,0-.57,2.63,8.31,8.31,0,0,0,.7,3.76,3.64,3.64,0,0,0,.57,1,1.08,1.08,0,0,0,1,.39,1.44,1.44,0,0,0,.87-.76,3.4,3.4,0,0,0,.38-1.23,19.87,19.87,0,0,0,.05-5.83,20.87,20.87,0,0,0-.69-3.16,7.28,7.28,0,0,0-.63-1.56,3.14,3.14,0,0,0-1.15-1.22,1.73,1.73,0,0,0-1.64,0,3,3,0,0,0-1.14,1.31,8.42,8.42,0,0,0-.61,1.75c-.18.6-.29,1.23-.43,1.85-1,5.06-.42,10.61.23,16.32a155.24,155.24,0,0,1,1,19.45,153.64,153.64,0,0,1-1,15.86c-.55,4.5-1.17,8.12-1.68,10.6-.23,1.25-.46,2.21-.61,2.86-.07.3-.12.55-.17.74a.76.76,0,0,1-.08.25l0-.26c0-.19.08-.44.13-.75.11-.65.31-1.62.52-2.87.44-2.49,1-6.11,1.52-10.6s.88-9.87.94-15.84a160.62,160.62,0,0,0-1-19.39c-.64-5.71-1.2-11.31-.2-16.44.15-.64.26-1.27.45-1.88a8.56,8.56,0,0,1,.64-1.82,3.38,3.38,0,0,1,1.33-1.48,2.18,2.18,0,0,1,2.06,0,3.55,3.55,0,0,1,1.31,1.39,7.45,7.45,0,0,1,.64,1.63,20.26,20.26,0,0,1,.59,9.14,3.81,3.81,0,0,1-.43,1.31,1.71,1.71,0,0,1-1.09.9,1.39,1.39,0,0,1-1.29-.5,3.79,3.79,0,0,1-.6-1,8.28,8.28,0,0,1-.65-3.86,7.93,7.93,0,0,1,.66-2.67l0-.08.07.06,1.16,1A2.53,2.53,0,0,1,142.08,208.09Z" style="fill:#6f4439"></path><path d="M141.14,80.26C141.14,81.21,119,140,119,140l11.07-9.48L114.12,171.6l10.51-12.33-16.78,52,10.4-5.85-10.5,36.34,9-9.48-9,27.18L179,255l-16.88-51.2,10.2,9.48L159.16,176l6.75,3.16-15.39-48,7.13,4.11Z" style="fill:#455a64"></path><path d="M48.66,317.75l2.22-86.7-11.57-9.16.91-1.81L51,227.38l5.34-63.32H59s1.9,141.4,5.07,146.26,9.1,7.43,9.1,7.43Z" style="fill:#ae7461"></path><path d="M52,313.28a.86.86,0,0,0,0-.28l-.08-.82c-.08-.75-.2-1.81-.35-3.16-.31-2.74-.78-6.7-1.19-11.6a132.27,132.27,0,0,1-.41-17.25A80.4,80.4,0,0,1,51,270c.61-3.49,1.49-7.07,2.35-10.75a86.73,86.73,0,0,0,2-10.84,43.93,43.93,0,0,0,.22-5.22,42.64,42.64,0,0,0-.43-5C54.65,235,54,232,53.32,229.12s-1.2-5.49-1.54-7.92a34.53,34.53,0,0,1,0-11.58,26.86,26.86,0,0,1,.79-3.08l.28-.79c.06-.18.08-.27.08-.27a1.63,1.63,0,0,0-.13.26l-.31.78a20.46,20.46,0,0,0-.88,3.07,33.66,33.66,0,0,0-.14,11.64c.33,2.45.88,5.11,1.49,8s1.3,5.87,1.74,9.09a44.39,44.39,0,0,1,.42,5,45.59,45.59,0,0,1-.23,5.18,88.6,88.6,0,0,1-2,10.79c-.86,3.68-1.73,7.26-2.34,10.77a81,81,0,0,0-1.07,10.18A129.38,129.38,0,0,0,50,297.44c.46,4.91,1,8.87,1.33,11.6.19,1.35.34,2.4.44,3.14l.12.82A2.52,2.52,0,0,0,52,313.28Z" style="fill:#6f4439"></path><path d="M69.46,317.69a15.53,15.53,0,0,1-4.15-.41,15.82,15.82,0,0,1-8.79-6,21.39,21.39,0,0,1-3.05-6.35,50.63,50.63,0,0,1-1.59-7.83,72.13,72.13,0,0,1-.37-18.21,7.39,7.39,0,0,1,.81-3,2.92,2.92,0,0,1,1-1.1,2.41,2.41,0,0,1,1.52-.28,3.92,3.92,0,0,1,2.43,1.79A15.52,15.52,0,0,1,58.68,279a19,19,0,0,1,1,10.77,5.67,5.67,0,0,1-.8,2.32,1.17,1.17,0,0,1-1,.51,1.44,1.44,0,0,1-1-.51,4.39,4.39,0,0,1-.65-1c-.19-.34-.33-.69-.48-1a10.29,10.29,0,0,1-.58-2.08,10.5,10.5,0,0,1,1.21-7h-.21a8.16,8.16,0,0,1,1.71,4.9,9.76,9.76,0,0,1-.1,1.36,3.35,3.35,0,0,0-.08.47,5.57,5.57,0,0,0,.3-1.83,8.05,8.05,0,0,0-1.63-5l-.11-.15-.1.16A10.76,10.76,0,0,0,54.9,288a9.37,9.37,0,0,0,1.76,4.22,1.86,1.86,0,0,0,1.27.64,1.64,1.64,0,0,0,1.32-.65,6.07,6.07,0,0,0,.87-2.45,19.26,19.26,0,0,0-1-11,15.7,15.7,0,0,0-1.39-2.74,6,6,0,0,0-1.11-1.21,3.42,3.42,0,0,0-1.63-.76,2.93,2.93,0,0,0-1.84.34,3.33,3.33,0,0,0-1.2,1.25,7.76,7.76,0,0,0-.86,3.12,71.39,71.39,0,0,0,.4,18.3A50.62,50.62,0,0,0,53.11,305a21.53,21.53,0,0,0,3.14,6.41,15.87,15.87,0,0,0,9,6,12.74,12.74,0,0,0,3.11.34c.36,0,.63,0,.82,0Z" style="fill:#6f4439"></path><path d="M55,219.38a3.46,3.46,0,0,0,.38-.27l1.13-.87-.09,0a7.08,7.08,0,0,1-.12,5.74,3.36,3.36,0,0,1-.54.86,1,1,0,0,1-1,.35,1.29,1.29,0,0,1-.83-.68,3.1,3.1,0,0,1-.36-1.1,17.22,17.22,0,0,1,0-5.23,17.82,17.82,0,0,1,.65-2.84,6.64,6.64,0,0,1,.6-1.4,2.83,2.83,0,0,1,1.08-1.09,1.7,1.7,0,0,1,1.55,0A2.69,2.69,0,0,1,58.52,214a6.83,6.83,0,0,1,.57,1.57c.18.54.28,1.1.41,1.66.93,4.54.4,9.52-.21,14.65a131.19,131.19,0,0,0-.94,17.45,127.37,127.37,0,0,0,1,14.24c.51,4,1.1,7.28,1.58,9.51.22,1.12.44,2,.57,2.57.07.27.13.49.17.66a1,1,0,0,0,.07.23.72.72,0,0,0,0-.24l-.12-.67c-.1-.59-.29-1.45-.49-2.57-.42-2.24-1-5.49-1.43-9.52a134,134,0,0,1-.89-14.21,136,136,0,0,1,1-17.41c.61-5.12,1.14-10.15.19-14.75-.14-.57-.25-1.14-.43-1.69a7.12,7.12,0,0,0-.6-1.63,3,3,0,0,0-1.26-1.33,2.16,2.16,0,0,0-2,0,3.18,3.18,0,0,0-1.23,1.24,6.36,6.36,0,0,0-.61,1.47,17.33,17.33,0,0,0-.65,2.89,17,17,0,0,0,.1,5.31,3.12,3.12,0,0,0,.4,1.18,1.62,1.62,0,0,0,1,.81A1.34,1.34,0,0,0,56,225a3.53,3.53,0,0,0,.57-.93,7.14,7.14,0,0,0,.61-3.47,6.93,6.93,0,0,0-.62-2.39l0-.07-.07,0-1.09.91A2.5,2.5,0,0,0,55,219.38Z" style="fill:#6f4439"></path><path d="M55.87,104.65c0,.85,20.93,53.61,20.93,53.61l-10.46-8.51,15.07,36.87-9.93-11.06,15.86,46.66L77.51,217l9.93,32.62-8.51-8.51,8.51,24.39-67.39-4,16-45.95-9.64,8.51,12.48-33.47-6.39,2.84L47,150.32,40.26,154Z" style="fill:#455a64"></path></g><g id="freepik--Plants--inject-74"><path d="M455.51,297.89a4,4,0,0,1,2,2.31,6.9,6.9,0,0,1,.27,3.13A12.26,12.26,0,0,1,455.2,309c-1.71-1.49-2.1-4.09-2.22-5.42-.18-2.1.76-6,2.53-5.71" style="fill:#455a64"></path><path d="M457.18,312.37a3.37,3.37,0,0,1,1.09-3.19,4.46,4.46,0,0,1,3.28-1,1.89,1.89,0,0,1,1.44.64,1.44,1.44,0,0,1,0,1.46,2.87,2.87,0,0,1-1.07,1.06,5.77,5.77,0,0,1-4.76,1.05" style="fill:#455a64"></path><path d="M455,318.59a4.06,4.06,0,0,1,.06-.42c.06-.29.13-.67.21-1.12a11.86,11.86,0,0,1,1.16-3.6A7.2,7.2,0,0,1,459,310.7a5,5,0,0,1,1.06-.46l.3-.08h.11a7.44,7.44,0,0,0-1.41.64,7.57,7.57,0,0,0-2.51,2.73,12.72,12.72,0,0,0-1.19,3.55c-.1.47-.19.85-.25,1.11A2.56,2.56,0,0,1,455,318.59Z" style="fill:#263238"></path><path d="M455.06,300.94s0,.06,0,.18l0,.52c0,.46.05,1.12.08,1.93.05,1.62.09,3.87.08,6.35s-.07,4.73-.14,6.35c0,.82-.07,1.47-.09,1.93,0,.21,0,.38,0,.52s0,.18,0,.18,0-.06,0-.18,0-.31,0-.53c0-.47,0-1.12,0-1.92,0-1.62.08-3.87.09-6.35s0-4.72,0-6.35c0-.8,0-1.45,0-1.92v-.53C455.05,301,455.05,300.94,455.06,300.94Z" style="fill:#263238"></path><path d="M454.23,313.6a7.85,7.85,0,0,0-4.29-5.74,1.66,1.66,0,0,0-1.78,0,1.63,1.63,0,0,0-.14,1.78,6.71,6.71,0,0,0,6.17,4.16" style="fill:#455a64"></path><path d="M450.22,309.78a2,2,0,0,1,.36.16,3.41,3.41,0,0,1,.41.22,4,4,0,0,1,.52.33,7,7,0,0,1,.6.44c.21.17.42.37.64.58a8.83,8.83,0,0,1,1.2,1.55,8.29,8.29,0,0,1,.8,1.8,7.62,7.62,0,0,1,.2.83c.05.27.08.52.1.74s0,.44,0,.62a3.17,3.17,0,0,1,0,.46,1.38,1.38,0,0,1,0,.39s0-.56-.07-1.46a7.2,7.2,0,0,0-.12-.72c-.05-.27-.13-.54-.21-.82a9.08,9.08,0,0,0-.8-1.76,8.55,8.55,0,0,0-1.17-1.53A8.23,8.23,0,0,0,452,311a7.27,7.27,0,0,0-.58-.46C450.72,310.05,450.21,309.81,450.22,309.78Z" style="fill:#263238"></path><path d="M413.94,396.7a4.92,4.92,0,0,1,2.54,2.88,8.8,8.8,0,0,1,.34,3.89,15.27,15.27,0,0,1-3.27,7.09c-2.13-1.86-2.61-5.09-2.76-6.75-.23-2.62.95-7.5,3.15-7.11" style="fill:#455a64"></path><path d="M416,414.72a4.17,4.17,0,0,1,1.35-4,5.55,5.55,0,0,1,4.09-1.28,2.3,2.3,0,0,1,1.79.81,1.74,1.74,0,0,1,0,1.8,3.47,3.47,0,0,1-1.34,1.32c-1.84,1.16-3.83,1.94-5.92,1.31" style="fill:#455a64"></path><path d="M413.3,422.47a2,2,0,0,1,.07-.52c.07-.37.15-.84.26-1.4a14.22,14.22,0,0,1,1.45-4.48,8.84,8.84,0,0,1,3.21-3.42,6.87,6.87,0,0,1,1.31-.58A3.81,3.81,0,0,1,420,412l.13,0a9.32,9.32,0,0,0-1.75.8,9.16,9.16,0,0,0-3.12,3.4,15.29,15.29,0,0,0-1.48,4.41c-.13.59-.24,1.07-.32,1.39A3.63,3.63,0,0,1,413.3,422.47Z" style="fill:#263238"></path><path d="M413.38,400.49s0,.08,0,.23,0,.38,0,.65c0,.57.06,1.39.1,2.4.06,2,.11,4.82.1,7.91s-.09,5.88-.17,7.9c0,1-.08,1.83-.12,2.4,0,.26,0,.48,0,.65l0,.22a.72.72,0,0,1,0-.22c0-.17,0-.39,0-.66,0-.58,0-1.4.06-2.39.05-2,.1-4.82.12-7.91s0-5.88,0-7.9c0-1,0-1.81,0-2.4,0-.26,0-.48,0-.65A1,1,0,0,1,413.38,400.49Z" style="fill:#263238"></path><path d="M412.34,416.26a9.74,9.74,0,0,0-5.33-7.15,2.07,2.07,0,0,0-2.22,0,2,2,0,0,0-.17,2.22,8.34,8.34,0,0,0,7.67,5.18" style="fill:#455a64"></path><path d="M407.36,411.5a3.16,3.16,0,0,1,.45.2,5.3,5.3,0,0,1,.51.27c.19.12.42.24.65.41a8,8,0,0,1,.74.56,8.46,8.46,0,0,1,.79.72,10.08,10.08,0,0,1,2.49,4.16,9.17,9.17,0,0,1,.25,1,8.81,8.81,0,0,1,.13.92,7,7,0,0,1,0,.77,3.32,3.32,0,0,1,0,.57,2.75,2.75,0,0,1-.05.49s0-.7-.09-1.82a8.87,8.87,0,0,0-.15-.9c-.06-.33-.16-.66-.26-1a11,11,0,0,0-1-2.19,11.29,11.29,0,0,0-1.46-1.91,10.14,10.14,0,0,0-.77-.72,6.73,6.73,0,0,0-.72-.56C408,411.83,407.34,411.54,407.36,411.5Z" style="fill:#263238"></path><path d="M55.47,409.79A4.87,4.87,0,0,1,58,412.66a8.83,8.83,0,0,1,.34,3.89,15.17,15.17,0,0,1-3.27,7.09c-2.12-1.85-2.61-5.09-2.76-6.75-.23-2.62,1-7.49,3.15-7.1" style="fill:#455a64"></path><path d="M57.55,427.81a4.19,4.19,0,0,1,1.35-4A5.54,5.54,0,0,1,63,422.57a2.29,2.29,0,0,1,1.79.8,1.75,1.75,0,0,1,0,1.81,3.61,3.61,0,0,1-1.34,1.32c-1.84,1.16-3.83,1.94-5.92,1.31" style="fill:#455a64"></path><path d="M54.83,435.55a2,2,0,0,1,.07-.52c.07-.36.16-.83.26-1.4a14.57,14.57,0,0,1,1.45-4.48,8.88,8.88,0,0,1,3.21-3.41,5.79,5.79,0,0,1,1.31-.58,2.42,2.42,0,0,1,.38-.1l.13,0a9.9,9.9,0,0,0-1.75.81,9.28,9.28,0,0,0-3.12,3.39,15.34,15.34,0,0,0-1.48,4.42c-.13.59-.24,1.06-.32,1.39A2.78,2.78,0,0,1,54.83,435.55Z" style="fill:#263238"></path><path d="M54.91,413.58s0,.08,0,.23,0,.38,0,.65c0,.56.06,1.38.1,2.39.06,2,.11,4.82.1,7.91s-.09,5.89-.17,7.91c0,1-.08,1.83-.12,2.39,0,.27,0,.49,0,.65a.72.72,0,0,1,0,.23.82.82,0,0,1,0-.23v-.65c0-.59,0-1.4.06-2.39.05-2,.1-4.82.12-7.91s0-5.88-.05-7.9c0-1,0-1.81,0-2.4v-.65A.82.82,0,0,1,54.91,413.58Z" style="fill:#263238"></path><path d="M53.87,429.35a9.73,9.73,0,0,0-5.33-7.15,2,2,0,0,0-2.22,0,2.05,2.05,0,0,0-.17,2.22,8.37,8.37,0,0,0,7.67,5.18" style="fill:#455a64"></path><path d="M48.89,424.59a3.16,3.16,0,0,1,.45.2,3.72,3.72,0,0,1,.51.27,6.67,6.67,0,0,1,.65.41,7.82,7.82,0,0,1,.74.55c.26.21.52.46.79.72a11.21,11.21,0,0,1,1.5,1.93,10.59,10.59,0,0,1,1,2.24,9.17,9.17,0,0,1,.25,1,8.46,8.46,0,0,1,.13.92,7,7,0,0,1,0,.76,5.25,5.25,0,0,1,0,.58,3.26,3.26,0,0,1-.06.49s0-.7-.09-1.82a8.43,8.43,0,0,0-.15-.9c-.06-.33-.16-.67-.26-1a10.54,10.54,0,0,0-1-2.19,10.9,10.9,0,0,0-1.46-1.91,10.14,10.14,0,0,0-.77-.72,8.52,8.52,0,0,0-.72-.57C49.51,424.92,48.87,424.63,48.89,424.59Z" style="fill:#263238"></path><path d="M53.39,375.71A67.19,67.19,0,0,1,48,369.28a68.18,68.18,0,0,1-4.94-6.75A67.41,67.41,0,0,1,48.45,369,68.18,68.18,0,0,1,53.39,375.71Z" style="fill:#263238"></path><path d="M54.79,373.41a10.05,10.05,0,0,1-1-2.15,54,54,0,0,1-1.85-5.43,53.42,53.42,0,0,1-1.27-5.6,9.82,9.82,0,0,1-.26-2.36,12.12,12.12,0,0,1,.62,2.29c.33,1.42.81,3.38,1.41,5.53s1.23,4.06,1.69,5.44A11.6,11.6,0,0,1,54.79,373.41Z" style="fill:#263238"></path><path d="M58.77,357.57a68.22,68.22,0,0,1-.3,8.52,69.84,69.84,0,0,1-.81,8.49,68.37,68.37,0,0,1,.3-8.53A69.81,69.81,0,0,1,58.77,357.57Z" style="fill:#263238"></path><path d="M67,365.4a27.76,27.76,0,0,1-2.51,4.7,28.87,28.87,0,0,1-3,4.45A26.4,26.4,0,0,1,64,369.84,26.37,26.37,0,0,1,67,365.4Z" style="fill:#263238"></path><path d="M113.32,441.66s.2.22.46.68l.41.72-.59-.6a43.34,43.34,0,0,1-4.79-5.95,49.32,49.32,0,0,1-3.07-5.14,10.56,10.56,0,0,1-1-2.28,13.39,13.39,0,0,1,1.31,2.1c.78,1.31,1.87,3.11,3.18,5,1.89,2.79,3.72,5,4.52,6.1l-.18.12A2.53,2.53,0,0,1,113.32,441.66Z" style="fill:#263238"></path><path d="M118.06,440.48a12.89,12.89,0,0,1-1-2.65c-.51-1.66-1.12-4-1.65-6.57s-.86-5-1-6.7a13.73,13.73,0,0,1-.16-2.81,15.76,15.76,0,0,1,.52,2.76c.28,1.71.67,4.06,1.19,6.64s1.08,4.91,1.49,6.59A17.63,17.63,0,0,1,118.06,440.48Z" style="fill:#263238"></path><path d="M122.09,440.78a21.21,21.21,0,0,1,1.85-10.53c.14.05-.58,2.34-1.09,5.24S122.24,440.79,122.09,440.78Z" style="fill:#263238"></path><path d="M127,442.21a16,16,0,0,1,1.34-3.92,17,17,0,0,1,1.82-3.73,32.83,32.83,0,0,1-3.16,7.65Z" style="fill:#263238"></path><path d="M348.77,448.57a35.08,35.08,0,0,1-3.56-4.85,36.27,36.27,0,0,1-3.14-5.15,35.13,35.13,0,0,1,3.57,4.86A34.76,34.76,0,0,1,348.77,448.57Z" style="fill:#263238"></path><path d="M350.7,432.07a50.82,50.82,0,0,1,.71,7.17,49.54,49.54,0,0,1,.2,7.2,51.65,51.65,0,0,1-.72-7.17A48.62,48.62,0,0,1,350.7,432.07Z" style="fill:#263238"></path><path d="M360.66,437.37a30.84,30.84,0,0,1-2.27,5.1,30.45,30.45,0,0,1-2.73,4.86,59,59,0,0,1,5-10Z" style="fill:#263238"></path><path d="M439.54,368.08a6.3,6.3,0,0,1-1.69-1.23,23.48,23.48,0,0,1-3.41-3.76,23,23,0,0,1-2.51-4.41,6.49,6.49,0,0,1-.65-2,60.57,60.57,0,0,0,3.58,6.1A59.27,59.27,0,0,0,439.54,368.08Z" style="fill:#263238"></path><path d="M442.46,366.64a9.68,9.68,0,0,1-1.28-2.06,54.49,54.49,0,0,1-2.5-5.28,53.1,53.1,0,0,1-1.91-5.53,10.72,10.72,0,0,1-.52-2.37,12.18,12.18,0,0,1,.87,2.26c.49,1.41,1.19,3.34,2.05,5.44s1.7,4,2.33,5.32A12.24,12.24,0,0,1,442.46,366.64Z" style="fill:#263238"></path><path d="M446.53,367.51a39.07,39.07,0,0,1,1.52-6.23,40.23,40.23,0,0,1,2-6.08,78.07,78.07,0,0,1-3.53,12.31Z" style="fill:#263238"></path></g><g id="freepik--Horizon--inject-74"><path d="M478.39,317.77c0,.15-101.35.26-226.34.26s-226.35-.11-226.35-.26,101.32-.26,226.35-.26S478.39,317.63,478.39,317.77Z" style="fill:#263238"></path></g><g id="freepik--Sun--inject-74"><circle cx="84.36" cy="58.92" r="16.71" transform="translate(12.75 132.81) rotate(-80.83)" style="fill:#2A5569"></circle><path d="M84.36,75.65A16.76,16.76,0,0,1,68.94,52.4a16.89,16.89,0,0,1,8.9-8.9,16.75,16.75,0,0,1,21.93,8.9,16.74,16.74,0,0,1,0,13A16.73,16.73,0,0,1,84.36,75.65Z" style="fill:#2A5569"></path><path d="M82,96.29a66.1,66.1,0,0,1-.18-6.9A66,66,0,0,1,82,82.5c.09,0,.17,3.09.17,6.89S82.07,96.29,82,96.29Z" style="fill:#2A5569"></path><path d="M82,96.3s-.09,0-.15-2c0-1.3,0-3,0-4.88s0-3.57,0-4.87c.06-2,.12-2,.15-2s.09,0,.14,2c0,1.3,0,3,0,4.87s0,3.58,0,4.88C82.07,96.3,82,96.3,82,96.3Zm0-13.77c-.08.25-.16,2.87-.16,6.86S81.9,96,82,96.26c.07-.26.15-2.88.15-6.87S82.05,82.78,82,82.53Z" style="fill:#2A5569"></path><path d="M72.35,78.61c.08,0-1.49,2.93-3.52,6.43S65.1,91.35,65,91.3s1.49-2.93,3.51-6.43S72.26,78.56,72.35,78.61Z" style="fill:#2A5569"></path><path d="M65,91.32h0s-.08,0,1-1.95c.66-1.21,1.57-2.82,2.54-4.51s1.92-3.28,2.64-4.46a10.25,10.25,0,0,1,1.19-1.81h0s.08,0-.95,1.94c-.67,1.22-1.57,2.82-2.55,4.51-1.74,3-3.67,6.23-3.82,6.27Zm7.31-12.68c-.21.2-1.67,2.57-3.79,6.24S65.11,91,65,91.27c.2-.2,1.66-2.56,3.78-6.23S72.26,78.92,72.33,78.64Z" style="fill:#2A5569"></path><path d="M62.46,72.46a40.14,40.14,0,0,1-3.9,3.33,39.17,39.17,0,0,1-4.12,3,34.74,34.74,0,0,1,3.9-3.33A36.45,36.45,0,0,1,62.46,72.46Z" style="fill:#2A5569"></path><path d="M54.44,78.86h0s-.05-.07,1.1-1.06c.74-.63,1.74-1.44,2.81-2.29a41.6,41.6,0,0,1,4.12-3.06h0s0,0,0,0h0s0,0,0,0a42.09,42.09,0,0,1-3.91,3.33c-1.07.85-2.09,1.64-2.87,2.21A5.53,5.53,0,0,1,54.44,78.86Zm8-6.39a46.48,46.48,0,0,0-4.09,3,46.14,46.14,0,0,0-3.9,3.3,41.41,41.41,0,0,0,4.1-3A43.2,43.2,0,0,0,62.44,72.47Zm0,0Z" style="fill:#2A5569"></path><path d="M98.65,89.5a10.33,10.33,0,0,1-.44-1.7c-.24-1-.58-2.5-1-4.09s-.86-3-1.18-4A9.78,9.78,0,0,1,95.55,78a8.22,8.22,0,0,1,.71,1.6c.38,1,.85,2.44,1.28,4s.73,3.06.91,4.13A8.34,8.34,0,0,1,98.65,89.5Z" style="fill:#2A5569"></path><path d="M98.65,89.51c-.06,0-.13-.26-.46-1.71-.22-1-.57-2.47-1-4.09s-.88-3.1-1.18-4v0c-.43-1.37-.51-1.67-.46-1.69s.06,0,.25.43c.14.3.31.72.48,1.19.26.69.78,2.13,1.29,4s.79,3.41.91,4.14a9,9,0,0,1,.2,1.75ZM95.56,78A16.7,16.7,0,0,0,96,79.64v0c.29.94.73,2.39,1.18,4s.78,3.11,1,4.1c.19.83.35,1.56.41,1.67a10.25,10.25,0,0,0-.2-1.72c-.13-.72-.41-2.23-.92-4.13s-1-3.34-1.28-4A11.25,11.25,0,0,0,95.56,78Z" style="fill:#2A5569"></path><path d="M115.6,77.47a59.72,59.72,0,0,1-4.94-4.09A59.12,59.12,0,0,1,106,69a57.84,57.84,0,0,1,4.94,4.09A57.06,57.06,0,0,1,115.6,77.47Z" style="fill:#2A5569"></path><path d="M115.6,77.49a62.55,62.55,0,0,1-4.95-4.09c-1.29-1.13-2.49-2.2-3.38-3-1.39-1.28-1.35-1.32-1.33-1.35h0c.17,0,2.67,2.11,4.94,4.09,1.29,1.13,2.49,2.2,3.38,3,1.39,1.28,1.35,1.32,1.33,1.35h0ZM106,69.05c.13.21,1.91,1.88,4.7,4.32s4.68,4,4.91,4.08c-.13-.21-1.9-1.88-4.7-4.32S106.2,69.15,106,69.05Z" style="fill:#2A5569"></path><path d="M122.09,60.94a15.07,15.07,0,0,1-2-.29c-1.24-.21-3-.47-4.85-.69s-3.63-.35-4.88-.43a14.46,14.46,0,0,1-2-.17,10,10,0,0,1,2-.08c1.26,0,3,.11,4.91.33s3.62.52,4.85.79A9.26,9.26,0,0,1,122.09,60.94Z" style="fill:#2A5569"></path><path d="M122,61c-.14,0-.55-.06-1.56-.23l-.39-.07c-1.7-.28-3.33-.51-4.85-.69s-3.16-.31-4.89-.42l-.39,0c-1.38-.08-1.65-.11-1.65-.16v0a10.83,10.83,0,0,1,2-.08c.86,0,2.66.07,4.91.33a48.81,48.81,0,0,1,4.86.8,11.34,11.34,0,0,1,2,.53v0h0S122.09,61,122,61Zm-13.68-1.6c.12,0,.75.07,1.6.13l.4,0c1.72.11,3.36.26,4.88.43s3.16.41,4.85.69l.4.07c.8.13,1.41.23,1.56.23h0a15.11,15.11,0,0,0-1.94-.51,48.47,48.47,0,0,0-4.85-.8c-2.25-.25-4-.31-4.91-.32A14.17,14.17,0,0,0,108.35,59.36Z" style="fill:#2A5569"></path><path d="M122.11,44.68c0,.1-3.59,1.06-8.08,2.15s-8.14,1.9-8.16,1.81,3.59-1.06,8.08-2.15S122.09,44.59,122.11,44.68Z" style="fill:#2A5569"></path><path d="M105.91,48.66s-.06,0-.06,0,0-.08,2.36-.72c1.53-.41,3.57-.92,5.74-1.45s4.21-1,5.75-1.35c2.41-.53,2.43-.47,2.43-.44h0s0,.08-2.36.72c-1.53.4-3.56.92-5.73,1.45s-4.22,1-5.76,1.35A19.63,19.63,0,0,1,105.91,48.66Zm16.17-4c-.33,0-3.43.67-8.13,1.82s-7.75,2-8,2.12c.33,0,3.42-.67,8.12-1.82S121.78,44.84,122.08,44.69Z" style="fill:#2A5569"></path><path d="M103.23,25.74c.08.06-1.65,2.82-3.87,6.17a72.47,72.47,0,0,1-4.16,6c-.08-.05,1.65-2.81,3.87-6.16S103.15,25.69,103.23,25.74Z" style="fill:#2A5569"></path><path d="M95.2,37.9h0v0c0-.16,2-3.3,3.88-6.17,1.07-1.63,2.09-3.14,2.88-4.27,1.21-1.73,1.27-1.73,1.3-1.71h0s.07.05-1.07,1.87c-.73,1.16-1.72,2.7-2.79,4.32s-2.1,3.13-2.88,4.26C95.4,37.76,95.24,37.9,95.2,37.9Zm8-12.13c-.21.18-1.8,2.44-4.13,5.95s-3.77,5.87-3.86,6.13c.22-.18,1.81-2.44,4.13-6S103.13,26,103.21,25.77Z" style="fill:#2A5569"></path><path d="M84.49,21.79a16.66,16.66,0,0,1,0,2.29c0,1.42-.05,3.37,0,5.53s0,4.11,0,5.53a14.93,14.93,0,0,1,0,2.29,14.44,14.44,0,0,1-.22-2.28c-.09-1.42-.16-3.38-.17-5.54s.07-4.12.15-5.54A13.41,13.41,0,0,1,84.49,21.79Z" style="fill:#2A5569"></path><path d="M84.5,37.45s0,0-.11-.63c0-.42-.09-1-.13-1.67-.06-1-.16-2.94-.16-5.54s.09-4.58.15-5.54c0-.67.08-1.25.12-1.67.06-.61.09-.63.11-.63h0c.05,0,.07.21,0,2.31,0,1.33,0,3.35,0,5.53s0,4,.06,5.44v.09c0,2.09,0,2.3,0,2.31Zm0-15.63a18.64,18.64,0,0,0-.21,2.25c-.06,1-.15,2.95-.15,5.54s.1,4.58.16,5.53a21,21,0,0,0,.21,2.25c0-.19,0-1.42,0-2.25v-.09c0-1.41,0-3.33,0-5.44s0-4.2,0-5.53C84.51,23.25,84.52,22,84.49,21.82Z" style="fill:#2A5569"></path><path d="M70.29,39.46c-.08,0-1.84-2.68-3.93-6.09s-3.71-6.23-3.63-6.29,1.84,2.68,3.93,6.1A72.35,72.35,0,0,1,70.29,39.46Z" style="fill:#2A5569"></path><path d="M70.29,39.48s-.18-.14-1.22-1.76c-.75-1.15-1.71-2.69-2.72-4.34-1.79-2.94-3.68-6.14-3.64-6.3h0S62.8,27,64,28.82c.74,1.15,1.71,2.7,2.72,4.35s1.94,3.22,2.63,4.41c1.07,1.85,1,1.88,1,1.9h0ZM62.75,27.11c.07.27,1.44,2.67,3.63,6.25s3.69,5.88,3.9,6.07c-.08-.27-1.44-2.66-3.63-6.24S63,27.3,62.75,27.11Z" style="fill:#2A5569"></path><path d="M61.82,46.67A9.48,9.48,0,0,1,60,46.39c-1.09-.23-2.58-.6-4.21-1.08s-3.07-1-4.11-1.38a8.31,8.31,0,0,1-1.64-.72,9.31,9.31,0,0,1,1.72.49c1.06.34,2.52.8,4.13,1.28s3.1.88,4.17,1.16A10,10,0,0,1,61.82,46.67Z" style="fill:#2A5569"></path><path d="M61.76,46.7l-.43-.05c-.33,0-.78-.14-1.3-.25-.73-.15-2.25-.49-4.2-1.07S52.42,44.22,51.72,44c-.5-.19-.92-.36-1.22-.5-.46-.2-.45-.23-.44-.25s.25,0,1.75.48c.85.27,2.42.78,4.13,1.28s3,.84,4.16,1.17c1.52.41,1.74.49,1.73.54h0S61.83,46.7,61.76,46.7ZM50.1,43.22a13.62,13.62,0,0,0,1.63.7c.7.27,2.17.8,4.11,1.38s3.47.92,4.2,1.07a13,13,0,0,0,1.72.29h0c-.13-.07-1-.31-1.7-.5-1.2-.32-2.6-.71-4.16-1.17s-3.29-1-4.13-1.27A14.75,14.75,0,0,0,50.1,43.22Z" style="fill:#2A5569"></path><path d="M58.11,59.51a41.73,41.73,0,0,1-5.33.69,43.8,43.8,0,0,1-5.37.34,39.69,39.69,0,0,1,5.33-.69A39.49,39.49,0,0,1,58.11,59.51Z" style="fill:#2A5569"></path><path d="M47.72,60.58a1,1,0,0,1-.32,0,0,0,0,0,0,0,0v0a45.24,45.24,0,0,1,5.34-.69,45.76,45.76,0,0,1,5.38-.34v0h0a0,0,0,0,1,0,0,47.72,47.72,0,0,1-5.34.69C50.72,60.41,48.52,60.58,47.72,60.58Zm-.28,0a52,52,0,0,0,5.34-.36,46.78,46.78,0,0,0,5.3-.67,48.65,48.65,0,0,0-5.33.36A44.2,44.2,0,0,0,47.44,60.54Z" style="fill:#2A5569"></path></g><g id="freepik--Sight--inject-74"><circle cx="244.57" cy="257.73" r="159.81" transform="translate(-110.61 248.42) rotate(-45)" style="fill:#f5f5f5"></circle><path d="M144.27,215.31l-2.63.16c-.22,7.5-.46,14.77-.71,21.71.2-1.12.53-2.71.86-4.75C142.52,228.36,143.44,222.51,144.27,215.31Z" style="fill:#ae7461"></path><path d="M160.89,226.54c.65,4,1.1,7.88,1.43,11.7l-.57-24-3.24.2C159.4,218.52,160.23,222.56,160.89,226.54Z" style="fill:#ae7461"></path><path d="M159.48,301.1c-.33,2.57-.6,4.59-.79,6-.09.66-.17,1.17-.23,1.56a2.89,2.89,0,0,1-.1.53,1.93,1.93,0,0,1,0-.53c0-.4.09-.91.15-1.57.15-1.42.36-3.44.64-6,.55-5.23,1.4-12.79,2.14-22.15a266.82,266.82,0,0,0,.76-32.92,166.68,166.68,0,0,0-2-19.35c-.66-4-1.51-8.05-2.41-12.17l-12.83.79c-.9,7.26-1.92,13.13-2.75,17.21-.39,2.13-.79,3.78-1,4.9l-.16.69c-1.28,35.92-2.81,62.66-4.55,65.47-5.15,8.31-6,13.09-6.07,14a25.14,25.14,0,0,0,3.87-.69,28.6,28.6,0,0,0,15.93-11.51,41.81,41.81,0,0,0,5.53-12.12,102.16,102.16,0,0,0,2.88-14.95,144.76,144.76,0,0,0,.67-34.77,14.56,14.56,0,0,0-1.47-5.68,5.42,5.42,0,0,0-1.9-2.1,4.11,4.11,0,0,0-2.75-.53c-1.93.31-3.37,1.87-4.41,3.41a30.09,30.09,0,0,0-2.46,5.08,38.09,38.09,0,0,0-1.91,20.56,11.46,11.46,0,0,0,1.44,4.43,2.2,2.2,0,0,0,1.8,1,2.65,2.65,0,0,0,1.82-1,7.6,7.6,0,0,0,1.17-1.83,20,20,0,0,0,.87-2,21,21,0,0,0-1-17,16.13,16.13,0,0,0-2.89,9,16.83,16.83,0,0,0,.19,2.6,5,5,0,0,1,.12.89,11.55,11.55,0,0,1-.54-3.49,16,16,0,0,1,3-9.58l.2-.29.17.31A21.34,21.34,0,0,1,153,261a18.46,18.46,0,0,1-3.18,8.06,3.31,3.31,0,0,1-2.31,1.22,2.86,2.86,0,0,1-2.38-1.24c-1-1.42-1.22-3.09-1.58-4.68a38.37,38.37,0,0,1,1.86-20.91,31.32,31.32,0,0,1,2.52-5.23,11,11,0,0,1,2-2.32,6,6,0,0,1,3-1.44,5,5,0,0,1,3.34.64,6.22,6.22,0,0,1,2.18,2.39,15.28,15.28,0,0,1,1.56,5.95,143.34,143.34,0,0,1-.74,34.93,100,100,0,0,1-3,15,42.25,42.25,0,0,1-5.69,12.24,28.76,28.76,0,0,1-16.33,11.51,24.15,24.15,0,0,1-3.45.57l33.39,0-1.29-55.27c-.19,6-.57,11.5-1,16.5C161.07,288.33,160.14,295.88,159.48,301.1Z" style="fill:#ae7461"></path><path d="M158.51,214.42l-.83.06c.9,4.12,1.75,8.18,2.41,12.17a166.68,166.68,0,0,1,2,19.35,266.82,266.82,0,0,1-.76,32.92c-.74,9.36-1.59,16.92-2.14,22.15-.28,2.58-.49,4.6-.64,6-.06.66-.11,1.17-.15,1.57a1.93,1.93,0,0,0,0,.53,2.89,2.89,0,0,0,.1-.53c.06-.39.14-.9.23-1.56.19-1.41.46-3.43.79-6,.66-5.22,1.59-12.77,2.41-22.14.43-5,.81-10.54,1-16.5.16-5.19.18-10.7-.06-16.49-.11-2.53-.29-5.11-.51-7.73-.33-3.82-.78-7.72-1.43-11.7S159.4,218.52,158.51,214.42Z" style="fill:#6f4439"></path><path d="M150.57,305.61a42.25,42.25,0,0,0,5.69-12.24,100,100,0,0,0,3-15,143.34,143.34,0,0,0,.74-34.93,15.28,15.28,0,0,0-1.56-5.95,6.22,6.22,0,0,0-2.18-2.39,5,5,0,0,0-3.34-.64,6,6,0,0,0-3,1.44,11,11,0,0,0-2,2.32,31.32,31.32,0,0,0-2.52,5.23,38.37,38.37,0,0,0-1.86,20.91c.36,1.59.54,3.26,1.58,4.68a2.86,2.86,0,0,0,2.38,1.24,3.31,3.31,0,0,0,2.31-1.22A18.46,18.46,0,0,0,153,261a21.34,21.34,0,0,0-2.4-13.68l-.17-.31-.2.29a16,16,0,0,0-3,9.58,11.55,11.55,0,0,0,.54,3.49,5,5,0,0,0-.12-.89,16.83,16.83,0,0,1-.19-2.6,16.13,16.13,0,0,1,2.89-9,21,21,0,0,1,1,17,20,20,0,0,1-.87,2,7.6,7.6,0,0,1-1.17,1.83,2.65,2.65,0,0,1-1.82,1,2.2,2.2,0,0,1-1.8-1,11.46,11.46,0,0,1-1.44-4.43,38.09,38.09,0,0,1,1.91-20.56,30.09,30.09,0,0,1,2.46-5.08c1-1.54,2.48-3.1,4.41-3.41a4.11,4.11,0,0,1,2.75.53,5.42,5.42,0,0,1,1.9,2.1,14.56,14.56,0,0,1,1.47,5.68,144.76,144.76,0,0,1-.67,34.77,102.16,102.16,0,0,1-2.88,14.95,41.81,41.81,0,0,1-5.53,12.12,28.6,28.6,0,0,1-15.93,11.51,25.14,25.14,0,0,1-3.87.69c-2.35.23-3.67,0-3.66.09l.5.06c.33,0,.83.09,1.48.1s1.34,0,2.19-.08a24.15,24.15,0,0,0,3.45-.57A28.76,28.76,0,0,0,150.57,305.61Z" style="fill:#6f4439"></path><path d="M142.1,232.48c.83-4.08,1.85-9.95,2.75-17.21l-.58,0c-.83,7.2-1.75,13.05-2.48,17.12-.33,2-.66,3.63-.86,4.75l0,.17c-.09.53-.16,1-.22,1.28a1.47,1.47,0,0,0,0,.44,3,3,0,0,0,.13-.43l.13-.57.16-.69C141.31,236.26,141.71,234.61,142.1,232.48Z" style="fill:#6f4439"></path><path d="M113.71,146.9l-11.77,40.71,15.43-16.24-15.43,46.56,39.7-2.46,2.63-.16.58,0,12.83-.79.83-.06,3.24-.2,62.34-3.87-28.93-87.71,17.47,16.24L197.15,95.13A168.25,168.25,0,0,0,113.71,146.9Z" style="fill:#455a64"></path><path d="M399.45,203.71h-.05c1,4.52,1.9,9,2.63,13.38.79,4.88,1.33,9.66,1.69,14.32l-.35-14.29Q401.69,210.32,399.45,203.71Z" style="fill:#ae7461"></path><path d="M400.48,299.48c-.38,2.85-.67,5.07-.88,6.64-.1.72-.19,1.29-.25,1.72a2.09,2.09,0,0,1-.12.58,4.35,4.35,0,0,1,0-.59c0-.43.09-1,.16-1.73.17-1.57.4-3.8.71-6.65.61-5.78,1.54-14.13,2.37-24.47a294,294,0,0,0,.83-36.38,182.62,182.62,0,0,0-2.18-21.37c-.74-4.42-1.67-8.91-2.67-13.46l-14.17.88c-1,8-2.12,14.51-3,19-.43,2.36-.88,4.18-1.14,5.41l-.19.78c-1.41,39.67-3.1,69.22-5,72.33-6.35,10.23-18.23,15.67-18.23,15.67h8.7l-.67-.06a2.87,2.87,0,0,1-.55-.07,28.72,28.72,0,0,0,8.32-.85,31.57,31.57,0,0,0,17.59-12.73,46.11,46.11,0,0,0,6.11-13.38,111,111,0,0,0,3.19-16.52,160.45,160.45,0,0,0,.74-38.42,16,16,0,0,0-1.63-6.27,6.1,6.1,0,0,0-2.09-2.33,4.66,4.66,0,0,0-3-.58c-2.13.34-3.73,2.06-4.88,3.76a33,33,0,0,0-2.71,5.62,41.92,41.92,0,0,0-2.11,22.71c.38,1.75.6,3.57,1.59,4.9a2.4,2.4,0,0,0,2,1.08,2.91,2.91,0,0,0,2-1.09,8.36,8.36,0,0,0,1.29-2,21.91,21.91,0,0,0,1-2.18,22.54,22.54,0,0,0,1.18-4.37,23.31,23.31,0,0,0-2.24-14.45,17.81,17.81,0,0,0-3.19,10,20.43,20.43,0,0,0,.2,2.88,5,5,0,0,1,.14,1,12.55,12.55,0,0,1-.59-3.85A17.64,17.64,0,0,1,390.27,240l.22-.32.19.34a23.6,23.6,0,0,1,2.65,15.11,20.44,20.44,0,0,1-3.52,8.91,3.62,3.62,0,0,1-2.55,1.34,3.14,3.14,0,0,1-2.63-1.36c-1.15-1.57-1.35-3.41-1.75-5.17a42.48,42.48,0,0,1,2.06-23.11,33.61,33.61,0,0,1,2.78-5.78,12.45,12.45,0,0,1,2.22-2.56,6.66,6.66,0,0,1,3.27-1.59,5.55,5.55,0,0,1,3.68.7,6.85,6.85,0,0,1,2.41,2.65,16.79,16.79,0,0,1,1.73,6.57,158.58,158.58,0,0,1-.82,38.59,110.23,110.23,0,0,1-3.29,16.61,46.44,46.44,0,0,1-6.29,13.52,31.72,31.72,0,0,1-18.05,12.72,25.38,25.38,0,0,1-4.31.67h29a167.39,167.39,0,0,0,7.92-27.56l-.87-35.49c-.18,7.34-.64,14.14-1.15,20.22C402.23,285.37,401.2,293.72,400.48,299.48Z" style="fill:#ae7461"></path><path d="M383.67,204.69l-2.9.18c-.26,8.29-.52,16.32-.79,24,.21-1.23.58-3,.95-5.24C381.73,219.11,382.75,212.65,383.67,204.69Z" style="fill:#ae7461"></path><path d="M399.4,203.72l-.92.05c1,4.55,1.93,9,2.67,13.46a182.62,182.62,0,0,1,2.18,21.37A294,294,0,0,1,402.5,275c-.83,10.34-1.76,18.69-2.37,24.47-.31,2.85-.54,5.08-.71,6.65-.07.73-.12,1.3-.16,1.73a4.35,4.35,0,0,0,0,.59,2.09,2.09,0,0,0,.12-.58c.06-.43.15-1,.25-1.72.21-1.57.5-3.79.88-6.64.72-5.76,1.75-14.11,2.66-24.46.51-6.08,1-12.88,1.15-20.22.13-5.16.12-10.57-.12-16.23-.1-2.34-.26-4.73-.45-7.15-.36-4.66-.9-9.44-1.69-14.32C401.3,212.7,400.38,208.24,399.4,203.72Z" style="fill:#6f4439"></path><path d="M390.63,304.46a46.44,46.44,0,0,0,6.29-13.52,110.23,110.23,0,0,0,3.29-16.61,158.58,158.58,0,0,0,.82-38.59,16.79,16.79,0,0,0-1.73-6.57,6.85,6.85,0,0,0-2.41-2.65,5.55,5.55,0,0,0-3.68-.7,6.66,6.66,0,0,0-3.27,1.59,12.45,12.45,0,0,0-2.22,2.56,33.61,33.61,0,0,0-2.78,5.78,42.48,42.48,0,0,0-2.06,23.11c.4,1.76.6,3.6,1.75,5.17a3.14,3.14,0,0,0,2.63,1.36,3.62,3.62,0,0,0,2.55-1.34,20.44,20.44,0,0,0,3.52-8.91A23.6,23.6,0,0,0,390.68,240l-.19-.34-.22.32A17.64,17.64,0,0,0,387,250.6a12.55,12.55,0,0,0,.59,3.85,5,5,0,0,0-.14-1,20.43,20.43,0,0,1-.2-2.88,17.81,17.81,0,0,1,3.19-10,23.31,23.31,0,0,1,2.24,14.45,22.54,22.54,0,0,1-1.18,4.37,21.91,21.91,0,0,1-1,2.18,8.36,8.36,0,0,1-1.29,2,2.91,2.91,0,0,1-2,1.09,2.4,2.4,0,0,1-2-1.08c-1-1.33-1.21-3.15-1.59-4.9A41.92,41.92,0,0,1,385.77,236a33,33,0,0,1,2.71-5.62c1.15-1.7,2.75-3.42,4.88-3.76a4.66,4.66,0,0,1,3,.58,6.1,6.1,0,0,1,2.09,2.33,16,16,0,0,1,1.63,6.27,160.45,160.45,0,0,1-.74,38.42,111,111,0,0,1-3.19,16.52,46.11,46.11,0,0,1-6.11,13.38,31.57,31.57,0,0,1-17.59,12.73,28.72,28.72,0,0,1-8.32.85,2.87,2.87,0,0,0,.55.07l.67.06a8.72,8.72,0,0,0,1,0c.54,0,1.19,0,1.92,0a25.38,25.38,0,0,0,4.31-.67A31.72,31.72,0,0,0,390.63,304.46Z" style="fill:#6f4439"></path><path d="M381.27,223.66c.92-4.5,2-11,3-19l-.64,0c-.92,8-1.94,14.42-2.74,18.92-.37,2.26-.74,4-.95,5.24,0,.06,0,.14,0,.19-.1.59-.18,1.05-.25,1.42a3.42,3.42,0,0,0-.05.49,1.7,1.7,0,0,0,.15-.47c0-.19.09-.4.14-.63l.19-.78C380.39,227.84,380.84,226,381.27,223.66Z" style="fill:#6f4439"></path><path d="M384.31,204.65l14.17-.88.92-.05h.05a168.32,168.32,0,0,0-49.83-73.63l-12.73,44,17.05-18-17.05,51.45,43.88-2.72,2.9-.18Z" style="fill:#455a64"></path><path d="M126.12,261.74a11.23,11.23,0,0,1,7.41,4.7,19.62,19.62,0,0,1,3.22,8.34c1,5.74-.54,12.26-2.65,17.68-5.86-2.72-9-9.53-10.38-13.08-2.18-5.61-2.7-17.09,2.4-17.64" style="fill:#455a64"></path><path d="M142.2,300.05a9.57,9.57,0,0,1,.43-9.59,12.7,12.7,0,0,1,8.18-5.42,5.33,5.33,0,0,1,4.46.62,4.08,4.08,0,0,1,1.21,4,8.14,8.14,0,0,1-2.1,3.76c-3.31,3.72-7.2,6.71-12.18,6.67" style="fill:#455a64"></path><path d="M141.15,318.81a7,7,0,0,1-.16-1.19c-.09-.84-.2-1.93-.33-3.24A33.39,33.39,0,0,1,141,303.6a20.41,20.41,0,0,1,4.88-9.56,13.77,13.77,0,0,1,2.52-2.12,8,8,0,0,1,.76-.45,1.23,1.23,0,0,1,.29-.13,21.71,21.71,0,0,0-3.35,2.9,21.16,21.16,0,0,0-4.69,9.46,36.14,36.14,0,0,0-.44,10.65c.1,1.38.17,2.49.2,3.26A6.17,6.17,0,0,1,141.15,318.81Z" style="fill:#263238"></path><path d="M127.29,270.44a3.78,3.78,0,0,1,.2.49c.13.36.3.82.5,1.4.43,1.23,1,3,1.74,5.21,1.44,4.4,3.34,10.52,5.28,17.32s3.57,13,4.68,17.5c.55,2.25,1,4.08,1.27,5.34.13.6.24,1.08.32,1.46a1.79,1.79,0,0,1,.08.51,2.24,2.24,0,0,1-.16-.49c-.11-.37-.24-.85-.4-1.44-.34-1.3-.82-3.1-1.4-5.3-1.18-4.48-2.85-10.66-4.79-17.46s-3.8-12.92-5.16-17.35c-.67-2.18-1.22-4-1.61-5.25-.18-.58-.32-1.06-.43-1.43A2.94,2.94,0,0,1,127.29,270.44Z" style="fill:#263238"></path><path d="M135.09,305.78a22.35,22.35,0,0,0-16.29-12.33c-1.78-.29-4-.19-4.91,1.35s0,3.54,1,5a19.08,19.08,0,0,0,20.18,6.49" style="fill:#455a64"></path><path d="M121.09,298.5a5.34,5.34,0,0,1,1.11.14,11.71,11.71,0,0,1,1.3.27c.49.15,1.08.25,1.69.49a21.15,21.15,0,0,1,2,.75,23.06,23.06,0,0,1,2.19,1.07,25.33,25.33,0,0,1,4.54,3.29,24.43,24.43,0,0,1,3.6,4.28,21.44,21.44,0,0,1,1.21,2.13,16.74,16.74,0,0,1,.87,1.94,17.4,17.4,0,0,1,.57,1.66,9.35,9.35,0,0,1,.33,1.28,5.62,5.62,0,0,1,.19,1.11c-.09,0-.38-1.56-1.36-3.94a18.85,18.85,0,0,0-.91-1.89,21.83,21.83,0,0,0-1.22-2.07,25.51,25.51,0,0,0-3.57-4.19,25.93,25.93,0,0,0-4.44-3.26,21.78,21.78,0,0,0-2.15-1.09,19.36,19.36,0,0,0-1.94-.79C122.66,298.82,121.07,298.59,121.09,298.5Z" style="fill:#263238"></path><path d="M361.6,298.94a4.77,4.77,0,0,0-3.33-.62,14.59,14.59,0,0,0-6.66,1.94,7.7,7.7,0,0,0-3.7,5.64l.34.47a4.5,4.5,0,0,0,3,1.45,12.6,12.6,0,0,0,3.41-.24,14.6,14.6,0,0,0,5.29-1.65,5.42,5.42,0,0,0,2.81-4.52A3.23,3.23,0,0,0,361.6,298.94Z" style="fill:#455a64"></path><path d="M353.65,274.08a8.78,8.78,0,0,0-5.81,3.69,15.45,15.45,0,0,0-2.53,6.54c-.78,4.5.42,9.61,2.08,13.87,4.59-2.14,7.45-7.75,8.56-10.53,2.49-6.26,1.7-13.13-2.3-13.57" style="fill:#455a64"></path><path d="M341.41,302.47a7.5,7.5,0,0,0-.34-7.52,10,10,0,0,0-6.41-4.25,4.18,4.18,0,0,0-3.5.49,3.21,3.21,0,0,0-1,3.11,6.45,6.45,0,0,0,1.65,2.94c2.59,2.92,5.64,5.26,9.55,5.23" style="fill:#455a64"></path><path d="M342.23,317.19a4.27,4.27,0,0,0,.13-.93c.07-.67.16-1.52.26-2.55a26.18,26.18,0,0,0-.25-8.45,16,16,0,0,0-3.83-7.5,11.41,11.41,0,0,0-2-1.66c-.25-.17-.47-.27-.6-.35s-.22-.11-.23-.1a14.91,14.91,0,0,1,6.31,9.68,28.47,28.47,0,0,1,.34,8.36c-.07,1.08-.13,1.95-.15,2.56A5.22,5.22,0,0,0,342.23,317.19Z" style="fill:#263238"></path><path d="M353.11,279.25a1.89,1.89,0,0,0-.16.38l-.39,1.1c-.34,1-.81,2.36-1.37,4.09-1.13,3.45-2.62,8.25-4.14,13.58s-2.8,10.2-3.67,13.73c-.43,1.77-.77,3.2-1,4.19-.1.47-.18.85-.25,1.14a2,2,0,0,0-.06.41,2.71,2.71,0,0,0,.13-.39c.08-.29.18-.67.31-1.13l1.1-4.16c.93-3.52,2.23-8.36,3.76-13.7s3-10.13,4-13.6l1.27-4.12c.13-.46.25-.83.33-1.12A2.59,2.59,0,0,0,353.11,279.25Z" style="fill:#263238"></path><path d="M358,301.26a4,4,0,0,0-.87.11,9.31,9.31,0,0,0-1,.21c-.39.11-.85.2-1.32.38a16.22,16.22,0,0,0-1.56.59,17,17,0,0,0-1.73.84,19.65,19.65,0,0,0-3.55,2.58,19.13,19.13,0,0,0-2.83,3.36,15.23,15.23,0,0,0-.95,1.67,13.83,13.83,0,0,0-.68,1.52,13.63,13.63,0,0,0-.45,1.3,8.92,8.92,0,0,0-.26,1,4.63,4.63,0,0,0-.15.87c.07,0,.3-1.23,1.07-3.09.21-.46.42-1,.71-1.49s.61-1.06,1-1.62a19.84,19.84,0,0,1,2.8-3.29,20.41,20.41,0,0,1,3.48-2.55c.59-.32,1.14-.63,1.69-.86s1.05-.44,1.52-.62C356.74,301.51,358,301.33,358,301.26Z" style="fill:#263238"></path><polygon points="190.88 302.57 168.67 363.3 188.28 363.3 206.77 312.55 190.88 302.57" style="fill:#ae7461"></polygon><polygon points="299.26 302.57 321.47 363.3 301.86 363.3 283.37 312.55 299.26 302.57" style="fill:#ae7461"></polygon><circle cx="246.5" cy="266.29" r="75.79" transform="translate(-48.4 477.73) rotate(-82.85)" style="fill:#2A5569"></circle><g style="opacity:0.30000000000000004"><circle cx="246.5" cy="266.29" r="75.79" transform="translate(-48.4 477.73) rotate(-82.85)"></circle></g><circle cx="244.46" cy="261.44" r="75.79" style="fill:#2A5569"></circle><circle cx="244.46" cy="261.44" r="58.96" transform="translate(-52.18 461.73) rotate(-80.95)" style="fill:#fff"></circle><circle cx="244.46" cy="261.44" r="41.48" transform="translate(-113.27 249.43) rotate(-45)" style="fill:#2A5569"></circle><circle cx="244.46" cy="261.44" r="21.89" style="fill:#fff"></circle><polygon points="303.09 200.06 301.03 183.89 317.49 166.28 318.67 183.73 303.09 200.06" style="fill:#455a64"></polygon><polygon points="338.41 187.19 321.71 185.84 304.98 201.94 321.72 203.72 338.41 187.19" style="fill:#455a64"></polygon><g style="opacity:0.30000000000000004"><path d="M244.46,262.72l62.21-44.56a85.28,85.28,0,0,0-7.9-9.77l-53.29,51.54Z"></path></g><path d="M321.14,180.36l-7.81,7.91-18.75,19Q283.29,218.7,272,230.15L252.38,250c-3.18,3.22-6.5,6.35-9.56,9.68l-.13.14c-1.85,1.87,1,4.75,2.88,2.88l7.81-7.91,18.75-19,22.58-22.88,19.62-19.88c3.18-3.22,6.5-6.35,9.56-9.68l.13-.14c1.85-1.87-1-4.75-2.88-2.88Z" style="fill:#263238"></path><path d="M308.5,290.56c.36.15-.34,2.87-2.41,6.89-.52,1-1.11,2.08-1.83,3.2s-1.51,2.29-2.37,3.51a57.14,57.14,0,0,1-14,13.42c-1.25.81-2.44,1.6-3.61,2.23S282.05,321,281,321.5c-4.1,1.9-6.84,2.49-7,2.13s2.23-1.74,5.91-4.06c.92-.59,1.93-1.22,3-2s2.15-1.53,3.3-2.37a78.33,78.33,0,0,0,13.39-12.85c.88-1.12,1.76-2.16,2.5-3.2s1.45-2,2.08-2.88C306.67,292.72,308.07,290.36,308.5,290.56Z" style="fill:#fff"></path><rect x="183.3" y="420.72" width="121.5" height="55.73" style="fill:#263238"></rect><path d="M306,422a2.31,2.31,0,0,1-.3.14l-.88.36-3.43,1.34-2.47,1c-.92.33-1.93.64-3,1-2.17.68-4.6,1.57-7.37,2.25l-4.33,1.16c-1.51.4-3.11.69-4.74,1.06-3.27.78-6.83,1.31-10.55,1.92a180.36,180.36,0,0,1-24.5,1.73,191.62,191.62,0,0,1-24.49-1.81c-3.73-.59-7.28-1.12-10.56-1.85-1.65-.35-3.25-.63-4.76-1l-4.35-1.08c-2.78-.64-5.24-1.45-7.42-2.07-1.08-.33-2.1-.61-3-.92l-2.52-.86-3.46-1.21-.9-.33-.3-.13.32.08.91.28,3.5,1.12,2.52.82c.93.29,2,.55,3,.87,2.19.59,4.65,1.38,7.43,2l4.35,1.05c1.51.37,3.11.64,4.75,1,3.28.71,6.82,1.22,10.54,1.79a193.13,193.13,0,0,0,24.43,1.76,184.65,184.65,0,0,0,24.43-1.67c3.72-.6,7.26-1.11,10.53-1.87,1.63-.36,3.23-.64,4.73-1l4.33-1.13c2.77-.66,5.21-1.52,7.38-2.17,1.07-.34,2.09-.64,3-.95l2.49-.92,3.46-1.25.9-.31A1.24,1.24,0,0,1,306,422Z" style="fill:#455a64"></path><path d="M114.83,269.32a39.59,39.59,0,0,1,0-9.06,39.59,39.59,0,0,1,0,9.06Z" style="fill:#263238"></path><path d="M129.74,269.32a39.59,39.59,0,0,1,0-9.06,39.59,39.59,0,0,1,0,9.06Z" style="fill:#263238"></path><path d="M144.1,269.32a39.59,39.59,0,0,1,0-9.06,39.59,39.59,0,0,1,0,9.06Z" style="fill:#263238"></path><path d="M158.72,269.32a39.59,39.59,0,0,1,0-9.06,39.59,39.59,0,0,1,0,9.06Z" style="fill:#263238"></path><path d="M136.6,264.79a5.26,5.26,0,0,1-.26-2.27,5.19,5.19,0,0,1,.26-2.26,4.94,4.94,0,0,1,.27,2.26A5,5,0,0,1,136.6,264.79Z" style="fill:#263238"></path><path d="M151.23,264.79a5.08,5.08,0,0,1-.26-2.27,5,5,0,0,1,.26-2.26,5.19,5.19,0,0,1,.26,2.26A5.26,5.26,0,0,1,151.23,264.79Z" style="fill:#263238"></path><path d="M165.9,264.79a5.26,5.26,0,0,1-.26-2.27,5.19,5.19,0,0,1,.26-2.26,5,5,0,0,1,.26,2.26A5.08,5.08,0,0,1,165.9,264.79Z" style="fill:#263238"></path><path d="M187.66,269.32a39.59,39.59,0,0,1,0-9.06,39.59,39.59,0,0,1,0,9.06Z" style="fill:#263238"></path><path d="M202,269.32a39.59,39.59,0,0,1,0-9.06,39.59,39.59,0,0,1,0,9.06Z" style="fill:#263238"></path><path d="M216.64,269.32a39.59,39.59,0,0,1,0-9.06,39.59,39.59,0,0,1,0,9.06Z" style="fill:#263238"></path><path d="M194.52,264.79a5.26,5.26,0,0,1-.26-2.27,5.19,5.19,0,0,1,.26-2.26,4.94,4.94,0,0,1,.27,2.26A5,5,0,0,1,194.52,264.79Z" style="fill:#263238"></path><path d="M180.05,264.79a5.08,5.08,0,0,1-.26-2.27,5,5,0,0,1,.26-2.26,5.19,5.19,0,0,1,.26,2.26A5.26,5.26,0,0,1,180.05,264.79Z" style="fill:#263238"></path><path d="M209.15,264.79a5.08,5.08,0,0,1-.26-2.27,5,5,0,0,1,.26-2.26,5.19,5.19,0,0,1,.26,2.26A5.26,5.26,0,0,1,209.15,264.79Z" style="fill:#263238"></path><path d="M223.82,264.79a5.26,5.26,0,0,1-.26-2.27,5.19,5.19,0,0,1,.26-2.26,5,5,0,0,1,.26,2.26A5.08,5.08,0,0,1,223.82,264.79Z" style="fill:#263238"></path><path d="M230.29,269a64.69,64.69,0,0,1-.26-8.14,64.92,64.92,0,0,1,.26-8.15,62.72,62.72,0,0,1,.26,8.15A62.49,62.49,0,0,1,230.29,269Z" style="fill:#263238"></path><path d="M244.31,269a62.49,62.49,0,0,1-.26-8.14,62.72,62.72,0,0,1,.26-8.15,64.92,64.92,0,0,1,.26,8.15A64.69,64.69,0,0,1,244.31,269Z" style="fill:#263238"></path><path d="M252.45,260.26a64.82,64.82,0,0,1-8.14.26,64.92,64.92,0,0,1-8.15-.26,62.72,62.72,0,0,1,8.15-.26A62.62,62.62,0,0,1,252.45,260.26Z" style="fill:#263238"></path><path d="M252.45,245.8a62.62,62.62,0,0,1-8.14.26,62.72,62.72,0,0,1-8.15-.26,64.92,64.92,0,0,1,8.15-.26A64.82,64.82,0,0,1,252.45,245.8Z" style="fill:#263238"></path><path d="M252.45,274.19a64.82,64.82,0,0,1-8.14.26,64.92,64.92,0,0,1-8.15-.26,62.72,62.72,0,0,1,8.15-.26A62.62,62.62,0,0,1,252.45,274.19Z" style="fill:#263238"></path><path d="M259.5,331.45c0,.15-6.95.26-15.52.26s-15.53-.11-15.53-.26,7-.26,15.53-.26S259.5,331.31,259.5,331.45Z" style="fill:#263238"></path><path d="M252.45,231.69a62.62,62.62,0,0,1-8.14.26,62.72,62.72,0,0,1-8.15-.26,64.92,64.92,0,0,1,8.15-.26A64.82,64.82,0,0,1,252.45,231.69Z" style="fill:#263238"></path><path d="M252.45,203.65a64.82,64.82,0,0,1-8.14.26,64.92,64.92,0,0,1-8.15-.26,64.92,64.92,0,0,1,8.15-.26A64.82,64.82,0,0,1,252.45,203.65Z" style="fill:#263238"></path><path d="M248.09,196.1a27.68,27.68,0,0,1-7.57,0,27.68,27.68,0,0,1,7.57,0Z" style="fill:#263238"></path><path d="M248.09,218a27.68,27.68,0,0,1-7.57,0,27.68,27.68,0,0,1,7.57,0Z" style="fill:#263238"></path><path d="M246.17,225c0,.14-.83.26-1.86.26s-1.87-.12-1.87-.26.84-.26,1.87-.26S246.17,224.87,246.17,225Z" style="fill:#263238"></path><path d="M246.17,239.86c0,.15-.83.26-1.86.26s-1.87-.11-1.87-.26.84-.26,1.87-.26S246.17,239.72,246.17,239.86Z" style="fill:#263238"></path><path d="M247.74,287.78a27.75,27.75,0,0,1-7.58,0,27.75,27.75,0,0,1,7.58,0Z" style="fill:#263238"></path><path d="M247.74,302.75a27.75,27.75,0,0,1-7.58,0,27.75,27.75,0,0,1,7.58,0Z" style="fill:#263238"></path><path d="M247.74,317.72a27.75,27.75,0,0,1-7.58,0,27.75,27.75,0,0,1,7.58,0Z" style="fill:#263238"></path><path d="M245.84,295.94c0,.14-.83.26-1.87.26s-1.86-.12-1.86-.26.83-.26,1.86-.26S245.84,295.79,245.84,295.94Z" style="fill:#263238"></path><path d="M245.84,280.89c0,.14-.83.26-1.87.26s-1.86-.12-1.86-.26.83-.26,1.86-.26S245.84,280.74,245.84,280.89Z" style="fill:#263238"></path><path d="M245.84,309.62c0,.14-.83.26-1.87.26s-1.86-.12-1.86-.26.83-.26,1.86-.26S245.84,309.47,245.84,309.62Z" style="fill:#263238"></path><path d="M245.84,324.72c0,.14-.83.26-1.87.26s-1.86-.12-1.86-.26.83-.26,1.86-.26S245.84,324.58,245.84,324.72Z" style="fill:#263238"></path><path d="M252.45,346.15a64.82,64.82,0,0,1-8.14.26,64.92,64.92,0,0,1-8.15-.26,64.92,64.92,0,0,1,8.15-.26A64.82,64.82,0,0,1,252.45,346.15Z" style="fill:#263238"></path><path d="M259.5,403.41c0,.15-6.95.26-15.52.26s-15.53-.11-15.53-.26,7-.26,15.53-.26S259.5,403.27,259.5,403.41Z" style="fill:#263238"></path><path d="M247.74,359.74a26.74,26.74,0,0,1-7.58,0,27.75,27.75,0,0,1,7.58,0Z" style="fill:#263238"></path><path d="M247.74,374.72a27.75,27.75,0,0,1-7.58,0,27.75,27.75,0,0,1,7.58,0Z" style="fill:#263238"></path><path d="M247.74,389.69a27.75,27.75,0,0,1-7.58,0,27.75,27.75,0,0,1,7.58,0Z" style="fill:#263238"></path><path d="M245.84,367.9c0,.14-.83.26-1.87.26s-1.86-.12-1.86-.26.83-.26,1.86-.26S245.84,367.76,245.84,367.9Z" style="fill:#263238"></path><path d="M245.84,353.31c0,.15-.83.26-1.87.26s-1.86-.11-1.86-.26.83-.26,1.86-.26S245.84,353.17,245.84,353.31Z" style="fill:#263238"></path><path d="M245.84,338.68c0,.14-.83.26-1.87.26s-1.86-.12-1.86-.26.83-.26,1.86-.26S245.84,338.54,245.84,338.68Z" style="fill:#263238"></path><path d="M245.84,381.58c0,.14-.83.26-1.87.26s-1.86-.12-1.86-.26.83-.26,1.86-.26S245.84,381.44,245.84,381.58Z" style="fill:#263238"></path><path d="M245.84,396.68c0,.15-.83.26-1.87.26s-1.86-.11-1.86-.26.83-.26,1.86-.26S245.84,396.54,245.84,396.68Z" style="fill:#263238"></path><path d="M246.17,210.62c0,.14-.83.26-1.86.26s-1.87-.12-1.87-.26.84-.26,1.87-.26S246.17,210.48,246.17,210.62Z" style="fill:#263238"></path><path d="M260,188.55c0,.15-6.9.26-15.42.26s-15.42-.11-15.42-.26,6.91-.26,15.42-.26S260,188.41,260,188.55Z" style="fill:#263238"></path><path d="M100.26,269a61.35,61.35,0,0,1-.27-8.14,61.57,61.57,0,0,1,.27-8.15,64.92,64.92,0,0,1,.26,8.15A64.69,64.69,0,0,1,100.26,269Z" style="fill:#263238"></path><path d="M122.16,264.79a5.26,5.26,0,0,1-.26-2.27,5.19,5.19,0,0,1,.26-2.26,5.19,5.19,0,0,1,.26,2.26A5.26,5.26,0,0,1,122.16,264.79Z" style="fill:#263238"></path><path d="M107.71,264.79a5.26,5.26,0,0,1-.26-2.27,5.19,5.19,0,0,1,.26-2.26,5,5,0,0,1,.26,2.26A5.08,5.08,0,0,1,107.71,264.79Z" style="fill:#263238"></path><path d="M173.09,274.43c-.15,0-.27-6.35-.27-14.17s.12-14.16.27-14.16.26,6.34.26,14.16S173.23,274.43,173.09,274.43Z" style="fill:#263238"></path><path d="M374.74,269.32a39.59,39.59,0,0,1,0-9.06,39.59,39.59,0,0,1,0,9.06Z" style="fill:#263238"></path><path d="M359.84,269.32a39.59,39.59,0,0,1,0-9.06,39.59,39.59,0,0,1,0,9.06Z" style="fill:#263238"></path><path d="M345.48,269.32a39.59,39.59,0,0,1,0-9.06,39.59,39.59,0,0,1,0,9.06Z" style="fill:#263238"></path><path d="M330.85,269.32a39.59,39.59,0,0,1,0-9.06,39.59,39.59,0,0,1,0,9.06Z" style="fill:#263238"></path><path d="M353,264.79a5.26,5.26,0,0,1-.26-2.27,5.19,5.19,0,0,1,.26-2.26,5,5,0,0,1,.26,2.26A5.08,5.08,0,0,1,353,264.79Z" style="fill:#263238"></path><path d="M338.35,264.79a5.26,5.26,0,0,1-.26-2.27,5.19,5.19,0,0,1,.26-2.26,5.19,5.19,0,0,1,.26,2.26A5.26,5.26,0,0,1,338.35,264.79Z" style="fill:#263238"></path><path d="M323.67,264.79a5.26,5.26,0,0,1-.26-2.27,5.19,5.19,0,0,1,.26-2.26,5,5,0,0,1,.26,2.26A5.08,5.08,0,0,1,323.67,264.79Z" style="fill:#263238"></path><path d="M301.92,269.32a39.59,39.59,0,0,1,0-9.06,39.59,39.59,0,0,1,0,9.06Z" style="fill:#263238"></path><path d="M287.56,269.32a39.59,39.59,0,0,1,0-9.06,39.59,39.59,0,0,1,0,9.06Z" style="fill:#263238"></path><path d="M272.93,269.32a39.59,39.59,0,0,1,0-9.06,39.59,39.59,0,0,1,0,9.06Z" style="fill:#263238"></path><path d="M295.05,264.79a5.26,5.26,0,0,1-.26-2.27,5.19,5.19,0,0,1,.26-2.26,5,5,0,0,1,.26,2.26A5.08,5.08,0,0,1,295.05,264.79Z" style="fill:#263238"></path><path d="M309.53,264.79a5.26,5.26,0,0,1-.26-2.27,5.19,5.19,0,0,1,.26-2.26,5.19,5.19,0,0,1,.26,2.26A5.26,5.26,0,0,1,309.53,264.79Z" style="fill:#263238"></path><path d="M280.43,264.79a5.26,5.26,0,0,1-.26-2.27,5.19,5.19,0,0,1,.26-2.26,5.19,5.19,0,0,1,.26,2.26A5.26,5.26,0,0,1,280.43,264.79Z" style="fill:#263238"></path><path d="M265.75,264.79a5.26,5.26,0,0,1-.26-2.27,5.19,5.19,0,0,1,.26-2.26,5,5,0,0,1,.26,2.26A5.08,5.08,0,0,1,265.75,264.79Z" style="fill:#263238"></path><path d="M259.28,269a64.69,64.69,0,0,1-.26-8.14,64.92,64.92,0,0,1,.26-8.15,62.72,62.72,0,0,1,.26,8.15A62.49,62.49,0,0,1,259.28,269Z" style="fill:#263238"></path><path d="M389.32,269a64.69,64.69,0,0,1-.26-8.14,64.92,64.92,0,0,1,.26-8.15,64.92,64.92,0,0,1,.26,8.15A64.69,64.69,0,0,1,389.32,269Z" style="fill:#263238"></path><path d="M367.42,264.79a5.08,5.08,0,0,1-.26-2.27,5,5,0,0,1,.26-2.26,5.19,5.19,0,0,1,.26,2.26A5.26,5.26,0,0,1,367.42,264.79Z" style="fill:#263238"></path><path d="M381.86,264.79a5.26,5.26,0,0,1-.26-2.27,5.19,5.19,0,0,1,.26-2.26,5,5,0,0,1,.26,2.26A5.08,5.08,0,0,1,381.86,264.79Z" style="fill:#263238"></path><path d="M316.49,274.43c-.14,0-.26-6.35-.26-14.17s.12-14.16.26-14.16.26,6.34.26,14.16S316.63,274.43,316.49,274.43Z" style="fill:#263238"></path><path d="M99.82,240.25v.64h-3v-.5l1.61-1.53c.39-.38.46-.61.46-.84s-.25-.58-.75-.58a1.15,1.15,0,0,0-1,.42l-.52-.4a1.84,1.84,0,0,1,1.53-.68c.88,0,1.45.45,1.45,1.17a1.61,1.61,0,0,1-.67,1.27l-1.08,1Z" style="fill:#263238"></path><path d="M100.23,238.87c0-1.33.73-2.09,1.69-2.09s1.69.76,1.69,2.09-.73,2.08-1.69,2.08S100.23,240.2,100.23,238.87Zm2.63,0c0-1-.39-1.43-.94-1.43s-.93.45-.93,1.43.38,1.42.93,1.42S102.86,239.84,102.86,238.87Z" style="fill:#263238"></path><path d="M171.38,236.84v4h-.75v-3.42h-.86v-.63Z" style="fill:#263238"></path><path d="M172.18,238.87c0-1.33.73-2.09,1.69-2.09s1.69.76,1.69,2.09-.72,2.08-1.69,2.08S172.18,240.2,172.18,238.87Zm2.63,0c0-1-.38-1.43-.94-1.43s-.93.45-.93,1.43.38,1.42.93,1.42S174.81,239.84,174.81,238.87Z" style="fill:#263238"></path><path d="M388.3,240.25v.64h-3v-.5l1.61-1.53c.39-.38.46-.61.46-.84s-.25-.58-.75-.58a1.15,1.15,0,0,0-.95.42l-.52-.4a1.84,1.84,0,0,1,1.53-.68c.88,0,1.45.45,1.45,1.17a1.61,1.61,0,0,1-.67,1.27l-1.08,1Z" style="fill:#263238"></path><path d="M388.71,238.87c0-1.33.73-2.09,1.69-2.09s1.69.76,1.69,2.09-.72,2.08-1.69,2.08S388.71,240.2,388.71,238.87Zm2.63,0c0-1-.39-1.43-.94-1.43s-.93.45-.93,1.43.38,1.42.93,1.42S391.34,239.84,391.34,238.87Z" style="fill:#263238"></path><path d="M316.15,236.84v4h-.76v-3.42h-.85v-.63Z" style="fill:#263238"></path><path d="M317,238.87c0-1.33.73-2.09,1.69-2.09s1.69.76,1.69,2.09-.73,2.08-1.69,2.08S317,240.2,317,238.87Zm2.62,0c0-1-.38-1.43-.93-1.43s-.94.45-.94,1.43.39,1.42.94,1.42S319.57,239.84,319.57,238.87Z" style="fill:#263238"></path><path d="M216.74,327.4v4.05H216V328h-.86v-.63Z" style="fill:#263238"></path><path d="M217.54,329.43c0-1.33.73-2.08,1.69-2.08s1.69.75,1.69,2.08-.73,2.08-1.69,2.08S217.54,330.76,217.54,329.43Zm2.63,0c0-1-.39-1.43-.94-1.43s-.93.45-.93,1.43.38,1.43.93,1.43S220.17,330.4,220.17,329.43Z" style="fill:#263238"></path><path d="M218.27,402.78v.63h-3v-.5l1.6-1.53c.4-.37.47-.61.47-.83,0-.37-.26-.59-.76-.59a1.12,1.12,0,0,0-.94.42l-.53-.4a1.87,1.87,0,0,1,1.54-.67c.88,0,1.44.44,1.44,1.16a1.64,1.64,0,0,1-.67,1.28l-1.08,1Z" style="fill:#263238"></path><path d="M218.68,401.39c0-1.33.73-2.08,1.69-2.08s1.7.75,1.7,2.08-.73,2.08-1.7,2.08S218.68,402.72,218.68,401.39Zm2.63,0c0-1-.38-1.43-.94-1.43s-.93.45-.93,1.43.38,1.43.93,1.43S221.31,402.37,221.31,401.39Z" style="fill:#263238"></path><path d="M244,403.41c-.14,0-.26-28.93-.26-64.61s.12-64.61.26-64.61.27,28.92.27,64.61S244.12,403.41,244,403.41Z" style="fill:#263238"></path><path d="M388.68,259.94c0,.14-29.07.26-64.92.26s-64.92-.12-64.92-.26,29.06-.26,64.92-.26S388.68,259.8,388.68,259.94Z" style="fill:#263238"></path><path d="M230.29,259.94c0,.14-29.09.26-65,.26s-65-.12-65-.26,29.09-.26,65-.26S230.29,259.8,230.29,259.94Z" style="fill:#263238"></path><g style="opacity:0.30000000000000004"><path d="M222.74,91.93c-40.6,14.73-73.09,48.82-88.53,89.15s-14.36,86.22.24,126.86S176.66,384,210.74,410.55c-49.19-9.25-93.2-42.82-115.13-87.81S74.36,222.4,97.38,178,165.21,101,214.61,93" style="fill:#fff"></path></g><path d="M379.55,274.46c-.17,0-.22-.82-.14-2.27,0-.73.11-1.63.21-2.68.05-.53.1-1.09.16-1.7s.08-1.25.12-1.93c.1-1.37.2-2.89.31-4.55s.1-3.47.17-5.4,0-4,0-6.21-.18-4.5-.32-6.93-.46-5-.71-7.6c-.11-1.32-.37-2.65-.56-4s-.41-2.75-.66-4.16-.57-2.82-.86-4.26c-.15-.72-.28-1.46-.45-2.18s-.37-1.46-.56-2.2c-.38-1.47-.72-3-1.14-4.47s-.91-3-1.38-4.54-1-3.06-1.56-4.61-1.06-3.12-1.74-4.65-1.27-3.12-1.92-4.7l-2.2-4.68a128.64,128.64,0,0,0-24.7-35l-3.67-3.64-3.78-3.4c-1.22-1.15-2.54-2.15-3.81-3.2s-2.5-2.09-3.81-3l-3.81-2.82c-1.28-.9-2.58-1.73-3.84-2.58L317,135.79c-.62-.41-1.27-.77-1.9-1.16l-3.73-2.24c-1.23-.71-2.48-1.36-3.69-2s-2.39-1.33-3.59-1.88c-2.41-1.12-4.66-2.32-6.92-3.22s-4.35-1.91-6.43-2.62-4-1.55-5.83-2.1-3.56-1.18-5.15-1.66l-4.38-1.24c-.66-.19-1.28-.38-1.87-.54l-1.65-.41c-1-.26-1.89-.5-2.59-.7-1.4-.42-2.12-.72-2.1-.9s.81-.22,2.27-.14c.73,0,1.63.12,2.7.22l1.72.18c.61.07,1.26.2,1.94.31l4.57.81c1.66.34,3.44.81,5.36,1.28s3.95,1.11,6.1,1.76,4.38,1.48,6.73,2.34,4.73,2,7.25,3c1.27.52,2.5,1.18,3.77,1.8s2.58,1.26,3.88,2l3.92,2.19c.66.38,1.34.74,2,1.14l2,1.25c1.33.85,2.69,1.67,4,2.57l4,2.84c1.38.92,2.67,2,4,3s2.71,2.09,4,3.26l4,3.47,3.86,3.73a127.18,127.18,0,0,1,25.68,36.42q1.13,2.47,2.23,4.89l1.93,4.9c.67,1.6,1.17,3.25,1.73,4.86s1.11,3.19,1.52,4.79.89,3.18,1.32,4.73.72,3.13,1.07,4.66l.51,2.28c.16.76.27,1.52.41,2.27.25,1.5.5,3,.75,4.42s.36,2.9.53,4.31.37,2.79.43,4.16c.15,2.72.42,5.33.39,7.83s.1,4.88-.05,7.13-.14,4.36-.39,6.33-.36,3.81-.6,5.49-.53,3.19-.77,4.57c-.12.68-.22,1.33-.35,1.93s-.29,1.16-.41,1.68c-.26,1-.5,1.92-.71,2.62C380,273.78,379.73,274.5,379.55,274.46Z" style="fill:#fff"></path><path d="M244.05,83.35A174.93,174.93,0,1,0,419,258.27,174.92,174.92,0,0,0,244.05,83.35Zm0,333.58A158.66,158.66,0,1,1,402.71,258.27,158.66,158.66,0,0,1,244.05,416.93Z" style="fill:#263238"></path><path d="M410.51,258.33s0-.91-.1-2.71c0-.89-.06-2-.09-3.33s-.07-2.87-.24-4.61-.29-3.7-.46-5.85-.56-4.48-.87-7a176.15,176.15,0,0,0-3.39-17.31c-.37-1.62-.9-3.25-1.36-4.94l-.73-2.56c-.12-.43-.25-.86-.37-1.3s-.29-.87-.44-1.3L400.64,202c-.6-1.83-1.41-3.64-2.13-5.53A160.78,160.78,0,0,0,386.89,173a168.88,168.88,0,0,0-42.43-47.48,166.51,166.51,0,0,0-70.3-31.21,169.35,169.35,0,0,0-65.43.74c-3.72.87-7.49,1.67-11.19,2.8s-7.41,2.32-11.13,3.56a167,167,0,0,0-42.29,22.74,182,182,0,0,0-18.84,16.22,178.59,178.59,0,0,0-16.49,19.25c-1.24,1.73-2.48,3.48-3.72,5.22l-3.48,5.42c-1.21,1.79-2.21,3.7-3.31,5.56l-1.61,2.81-1.49,2.89-1.49,2.9c-.5,1-1,1.94-1.42,2.94l-2.7,6c-.8,2-1.61,4.07-2.41,6.11l-.61,1.53L86,202.49l-1,3.13-1.06,3.14L83,211.94l-.9,3.2-.45,1.6-.37,1.62-1.5,6.5-1.17,6.59a166.25,166.25,0,0,0,0,53.73c.39,2.2.79,4.4,1.18,6.59s1,4.34,1.49,6.5,1.15,4.29,1.72,6.42l.91,3.19L85,311,86,314.14l.53,1.57.61,1.53,2.41,6.12,2.7,6,.68,1.49.74,1.45,1.49,2.9,1.49,2.89,1.61,2.82c1.1,1.86,2.1,3.77,3.3,5.56l3.49,5.42,3.72,5.23a178.59,178.59,0,0,0,16.49,19.25,183.35,183.35,0,0,0,18.84,16.23,175.36,175.36,0,0,0,20.57,13,177.61,177.61,0,0,0,21.73,9.72c3.72,1.24,7.38,2.58,11.13,3.56,3.71,1.14,7.47,1.94,11.19,2.8a169.39,169.39,0,0,0,65.44.74,166.51,166.51,0,0,0,70.3-31.21A169.2,169.2,0,0,0,386.9,343.7a161.79,161.79,0,0,0,11.62-23.54c.71-1.89,1.52-3.69,2.12-5.53l1.82-5.36q.46-1.31.81-2.61c.25-.86.49-1.72.73-2.56.46-1.69,1-3.31,1.36-4.93a175.73,175.73,0,0,0,3.39-17.32c.31-2.53.66-4.87.87-7s.33-4.1.46-5.85.2-3.28.24-4.61.07-2.44.09-3.34c.06-1.79.1-2.71.1-2.71s0,.92,0,2.72c0,.89-.05,2-.08,3.34s0,2.87-.2,4.61-.28,3.7-.44,5.85-.54,4.49-.85,7a175.68,175.68,0,0,1-3.34,17.34c-.36,1.62-.9,3.25-1.35,4.94-.24.84-.48,1.7-.73,2.56s-.49,1.75-.8,2.61l-1.82,5.38c-.59,1.84-1.4,3.65-2.11,5.54a162.09,162.09,0,0,1-11.6,23.6,169.23,169.23,0,0,1-42.45,47.63,167.07,167.07,0,0,1-70.45,31.35,170.24,170.24,0,0,1-65.61-.71c-3.74-.87-7.51-1.67-11.23-2.81-3.76-1-7.44-2.32-11.17-3.56A178.47,178.47,0,0,1,164.45,406,175.57,175.57,0,0,1,143.82,393a184.5,184.5,0,0,1-18.91-16.27,180.83,180.83,0,0,1-16.54-19.31l-3.73-5.24-3.5-5.44c-1.21-1.79-2.21-3.71-3.31-5.58L96.2,338.3l-1.49-2.9-1.49-2.91L92.47,331l-.68-1.49-2.71-6q-1.2-3.06-2.42-6.14l-.6-1.53-.53-1.57-1.07-3.14L83.4,308l-.9-3.19c-.58-2.15-1.29-4.26-1.74-6.44s-1-4.35-1.49-6.52-.79-4.41-1.18-6.61a167,167,0,0,1,0-53.91c.4-2.2.79-4.41,1.18-6.61l1.5-6.51.38-1.63L81.6,215l.91-3.2.9-3.2,1.07-3.14,1.06-3.14.53-1.57.6-1.53,2.43-6.13,2.7-6c.44-1,.92-2,1.43-2.94l1.49-2.91,1.5-2.9,1.62-2.82c1.1-1.87,2.1-3.79,3.31-5.58s2.33-3.63,3.5-5.43,2.49-3.5,3.73-5.25A181.71,181.71,0,0,1,124.92,140a183.06,183.06,0,0,1,18.9-16.26,167.32,167.32,0,0,1,42.42-22.79c3.73-1.24,7.41-2.59,11.17-3.56,3.71-1.14,7.49-1.94,11.22-2.81a170.24,170.24,0,0,1,65.61-.71,166.89,166.89,0,0,1,70.45,31.34,169.23,169.23,0,0,1,42.45,47.63,160.07,160.07,0,0,1,11.6,23.6c.72,1.89,1.52,3.7,2.12,5.54l1.81,5.38c.15.43.3.87.44,1.3s.25.88.37,1.31c.25.86.49,1.72.73,2.56.45,1.7,1,3.32,1.34,4.95a172.55,172.55,0,0,1,3.35,17.34c.31,2.54.64,4.88.85,7s.31,4.1.44,5.85.18,3.28.2,4.61.06,2.45.08,3.34C410.5,257.42,410.51,258.33,410.51,258.33Z" style="fill:#455a64"></path><path d="M397.38,258.47a27.6,27.6,0,0,1-5.21-.26,54.31,54.31,0,0,1,10.41,0A27.62,27.62,0,0,1,397.38,258.47Z" style="fill:#263238"></path><path d="M396.56,273.94a28.28,28.28,0,0,1-5.16-.77,26.78,26.78,0,0,1,5.21.27,27.53,27.53,0,0,1,5.15.78A27.22,27.22,0,0,1,396.56,273.94Z" style="fill:#263238"></path><path d="M394.18,289.26a27.06,27.06,0,0,1-5.05-1.3,28.18,28.18,0,0,1,5.16.81,28.54,28.54,0,0,1,5,1.29A26.64,26.64,0,0,1,394.18,289.26Z" style="fill:#263238"></path><path d="M390.27,304.26a26.92,26.92,0,0,1-4.89-1.81,27.52,27.52,0,0,1,5,1.32,26.56,26.56,0,0,1,4.89,1.81A27.52,27.52,0,0,1,390.27,304.26Z" style="fill:#263238"></path><path d="M384.85,318.77a26.93,26.93,0,0,1-4.68-2.29,28.87,28.87,0,0,1,4.88,1.83,26.93,26.93,0,0,1,4.68,2.29A26.92,26.92,0,0,1,384.85,318.77Z" style="fill:#263238"></path><path d="M378,332.66a28.17,28.17,0,0,1-4.43-2.75,56.15,56.15,0,0,1,9.1,5.06A27.24,27.24,0,0,1,378,332.66Z" style="fill:#263238"></path><path d="M369.76,345.78a27.27,27.27,0,0,1-4.13-3.18,27.76,27.76,0,0,1,4.42,2.77,26.93,26.93,0,0,1,4.13,3.19A27.42,27.42,0,0,1,369.76,345.78Z" style="fill:#263238"></path><path d="M360.25,358a27,27,0,0,1-3.79-3.58,27.89,27.89,0,0,1,4.12,3.21,26.58,26.58,0,0,1,3.78,3.58A27.54,27.54,0,0,1,360.25,358Z" style="fill:#263238"></path><path d="M349.56,369.23a27,27,0,0,1-3.41-4,27.57,27.57,0,0,1,3.77,3.61,27.22,27.22,0,0,1,3.41,3.94A27.84,27.84,0,0,1,349.56,369.23Z" style="fill:#263238"></path><path d="M337.8,379.32a27.57,27.57,0,0,1-3-4.27,26.8,26.8,0,0,1,3.39,4,27.32,27.32,0,0,1,3,4.27A27.46,27.46,0,0,1,337.8,379.32Z" style="fill:#263238"></path><path d="M325.08,388.17a26.86,26.86,0,0,1-2.55-4.55,54.42,54.42,0,0,1,5.52,8.83A29.1,29.1,0,0,1,325.08,388.17Z" style="fill:#263238"></path><path d="M311.54,395.69a26.21,26.21,0,0,1-2.08-4.78,27.83,27.83,0,0,1,2.52,4.56,27.08,27.08,0,0,1,2.08,4.78A27.83,27.83,0,0,1,311.54,395.69Z" style="fill:#263238"></path><path d="M297.3,401.8a26.64,26.64,0,0,1-1.58-5,28.48,28.48,0,0,1,2,4.79,27.27,27.27,0,0,1,1.58,5A27,27,0,0,1,297.3,401.8Z" style="fill:#263238"></path><path d="M282.51,406.44a28.36,28.36,0,0,1-1.07-5.1,52.37,52.37,0,0,1,2.62,10.08A28.8,28.8,0,0,1,282.51,406.44Z" style="fill:#263238"></path><path d="M267.34,409.55a27.11,27.11,0,0,1-.55-5.19,27.31,27.31,0,0,1,1,5.11,26.45,26.45,0,0,1,.54,5.18A27.35,27.35,0,0,1,267.34,409.55Z" style="fill:#263238"></path><path d="M251.92,411.1a27,27,0,0,1,0-5.21,54.31,54.31,0,0,1,.54,10.4A27.23,27.23,0,0,1,251.92,411.1Z" style="fill:#263238"></path><path d="M236.43,411.12a27,27,0,0,1,.49-5.2,53.28,53.28,0,0,1-.49,10.41A26.91,26.91,0,0,1,236.43,411.12Z" style="fill:#263238"></path><path d="M221,409.58a27.36,27.36,0,0,1,1-5.11,28.31,28.31,0,0,1-.52,5.18,27.36,27.36,0,0,1-1,5.12A27.36,27.36,0,0,1,221,409.58Z" style="fill:#263238"></path><path d="M205.82,406.5a28.28,28.28,0,0,1,1.52-5,26.68,26.68,0,0,1-1,5.11,27.17,27.17,0,0,1-1.53,5A28,28,0,0,1,205.82,406.5Z" style="fill:#263238"></path><path d="M191,401.88a27,27,0,0,1,2-4.8,54,54,0,0,1-3.59,9.78A27.33,27.33,0,0,1,191,401.88Z" style="fill:#263238"></path><path d="M176.78,395.79a28.2,28.2,0,0,1,2.5-4.57,55.22,55.22,0,0,1-4.56,9.36A28.11,28.11,0,0,1,176.78,395.79Z" style="fill:#263238"></path><path d="M163.22,388.29a27.42,27.42,0,0,1,3-4.3,27.84,27.84,0,0,1-2.53,4.56,27.42,27.42,0,0,1-3,4.3A27.84,27.84,0,0,1,163.22,388.29Z" style="fill:#263238"></path><path d="M150.49,379.46a28,28,0,0,1,3.38-4,27.46,27.46,0,0,1-3,4.28,27.61,27.61,0,0,1-3.37,4A27,27,0,0,1,150.49,379.46Z" style="fill:#263238"></path><path d="M138.72,369.39a28,28,0,0,1,3.75-3.62,27.11,27.11,0,0,1-3.39,4,28,28,0,0,1-3.75,3.62A27,27,0,0,1,138.72,369.39Z" style="fill:#263238"></path><path d="M128,358.19a26.9,26.9,0,0,1,4.1-3.22,28.29,28.29,0,0,1-3.77,3.6,27.47,27.47,0,0,1-4.1,3.22A27.57,27.57,0,0,1,128,358.19Z" style="fill:#263238"></path><path d="M118.48,346a27.83,27.83,0,0,1,4.4-2.79,27.1,27.1,0,0,1-4.11,3.2,28,28,0,0,1-4.4,2.8A26.77,26.77,0,0,1,118.48,346Z" style="fill:#263238"></path><path d="M110.23,332.86a27.28,27.28,0,0,1,4.66-2.34,27.66,27.66,0,0,1-4.42,2.78,26.75,26.75,0,0,1-4.66,2.33A27.24,27.24,0,0,1,110.23,332.86Z" style="fill:#263238"></path><path d="M103.34,319a26.78,26.78,0,0,1,4.88-1.85,28.3,28.3,0,0,1-4.68,2.31,26.55,26.55,0,0,1-4.87,1.85A27.52,27.52,0,0,1,103.34,319Z" style="fill:#263238"></path><path d="M97.9,304.47a27.26,27.26,0,0,1,5-1.35A27.51,27.51,0,0,1,98.06,305a27.67,27.67,0,0,1-5,1.34A28.39,28.39,0,0,1,97.9,304.47Z" style="fill:#263238"></path><path d="M94,289.49a27.26,27.26,0,0,1,5.15-.83A28.38,28.38,0,0,1,94.07,290a28.24,28.24,0,0,1-5.14.83A26.51,26.51,0,0,1,94,289.49Z" style="fill:#263238"></path><path d="M91.57,274.18a27.44,27.44,0,0,1,5.21-.3,28.48,28.48,0,0,1-5.15.8,27.4,27.4,0,0,1-5.21.3A27.85,27.85,0,0,1,91.57,274.18Z" style="fill:#263238"></path><path d="M90.73,258.71a26.8,26.8,0,0,1,5.21.22,28.55,28.55,0,0,1-5.21.28,26.73,26.73,0,0,1-5.2-.22A27.36,27.36,0,0,1,90.73,258.71Z" style="fill:#263238"></path><path d="M91.43,243.23a27.07,27.07,0,0,1,5.16.74,28.12,28.12,0,0,1-5.21-.24,27.07,27.07,0,0,1-5.16-.74A27.11,27.11,0,0,1,91.43,243.23Z" style="fill:#263238"></path><path d="M93.68,227.9a26.4,26.4,0,0,1,5.06,1.25,28.38,28.38,0,0,1-5.16-.76,26.84,26.84,0,0,1-5.06-1.26A27.92,27.92,0,0,1,93.68,227.9Z" style="fill:#263238"></path><path d="M97.47,212.87a27.64,27.64,0,0,1,4.91,1.76,27.43,27.43,0,0,1-5-1.28,27.64,27.64,0,0,1-4.91-1.76A26.49,26.49,0,0,1,97.47,212.87Z" style="fill:#263238"></path><path d="M102.77,198.31a27.08,27.08,0,0,1,4.71,2.25,27.39,27.39,0,0,1-4.9-1.79,28,28,0,0,1-4.7-2.25A26.83,26.83,0,0,1,102.77,198.31Z" style="fill:#263238"></path><path d="M109.52,184.37a26.43,26.43,0,0,1,4.45,2.71,27.7,27.7,0,0,1-4.68-2.28,28.18,28.18,0,0,1-4.46-2.71A27.18,27.18,0,0,1,109.52,184.37Z" style="fill:#263238"></path><path d="M117.65,171.18a26.31,26.31,0,0,1,4.15,3.15,28.24,28.24,0,0,1-4.43-2.74,27.6,27.6,0,0,1-4.16-3.15A26.35,26.35,0,0,1,117.65,171.18Z" style="fill:#263238"></path><path d="M127.06,158.87a26.93,26.93,0,0,1,3.82,3.56,27.52,27.52,0,0,1-4.14-3.18,26.56,26.56,0,0,1-3.82-3.55A28.43,28.43,0,0,1,127.06,158.87Z" style="fill:#263238"></path><path d="M137.66,147.57a27,27,0,0,1,3.44,3.92,26.86,26.86,0,0,1-3.8-3.57,27,27,0,0,1-3.44-3.92A28.38,28.38,0,0,1,137.66,147.57Z" style="fill:#263238"></path><path d="M149.34,137.39a26.3,26.3,0,0,1,3,4.25A28.47,28.47,0,0,1,149,137.7a26.77,26.77,0,0,1-3-4.24A27.94,27.94,0,0,1,149.34,137.39Z" style="fill:#263238"></path><path d="M162,128.44a28.43,28.43,0,0,1,2.59,4.53,26.7,26.7,0,0,1-3-4.26,26.66,26.66,0,0,1-2.59-4.53A28.09,28.09,0,0,1,162,128.44Z" style="fill:#263238"></path><path d="M175.47,120.81a27.27,27.27,0,0,1,2.12,4.76A27.12,27.12,0,0,1,175,121a28.22,28.22,0,0,1-2.12-4.76A27.64,27.64,0,0,1,175.47,120.81Z" style="fill:#263238"></path><path d="M189.66,114.58a26.68,26.68,0,0,1,1.62,5,27.63,27.63,0,0,1-2.09-4.78,27.62,27.62,0,0,1-1.62-5A27.18,27.18,0,0,1,189.66,114.58Z" style="fill:#263238"></path><path d="M204.41,109.83a28.47,28.47,0,0,1,1.11,5.09,26.85,26.85,0,0,1-1.59-5,26.35,26.35,0,0,1-1.11-5.1A28.44,28.44,0,0,1,204.41,109.83Z" style="fill:#263238"></path><path d="M219.56,106.6a28.22,28.22,0,0,1,.59,5.18,27,27,0,0,1-1.08-5.1,27.21,27.21,0,0,1-.59-5.18A27,27,0,0,1,219.56,106.6Z" style="fill:#263238"></path><path d="M235,104.92a27.19,27.19,0,0,1,.06,5.21,29,29,0,0,1-.56-5.18,27.16,27.16,0,0,1-.06-5.21A26.91,26.91,0,0,1,235,104.92Z" style="fill:#263238"></path><path d="M250.45,104.78A27.18,27.18,0,0,1,250,110a26.82,26.82,0,0,1,0-5.22,27.13,27.13,0,0,1,.45-5.19A26.74,26.74,0,0,1,250.45,104.78Z" style="fill:#263238"></path><path d="M265.89,106.2a28.22,28.22,0,0,1-1,5.12,26.2,26.2,0,0,1,.48-5.19,27.45,27.45,0,0,1,1-5.13A27.27,27.27,0,0,1,265.89,106.2Z" style="fill:#263238"></path><path d="M281.1,109.16a27.17,27.17,0,0,1-1.49,5,27.79,27.79,0,0,1,1-5.12,27.65,27.65,0,0,1,1.48-5A26.3,26.3,0,0,1,281.1,109.16Z" style="fill:#263238"></path><path d="M295.93,113.65a27.23,27.23,0,0,1-2,4.82,27.5,27.5,0,0,1,1.52-5,28.07,28.07,0,0,1,2-4.82A27,27,0,0,1,295.93,113.65Z" style="fill:#263238"></path><path d="M310.23,119.63a28,28,0,0,1-2.47,4.59,27,27,0,0,1,2-4.81,28.41,28.41,0,0,1,2.46-4.59A27.36,27.36,0,0,1,310.23,119.63Z" style="fill:#263238"></path><path d="M323.84,127a26.78,26.78,0,0,1-2.92,4.32,27.61,27.61,0,0,1,2.49-4.58,29,29,0,0,1,2.92-4.32A25.93,25.93,0,0,1,323.84,127Z" style="fill:#263238"></path><path d="M336.64,135.75a27.89,27.89,0,0,1-3.34,4,26.69,26.69,0,0,1,2.94-4.31,26.72,26.72,0,0,1,3.34-4A27.72,27.72,0,0,1,336.64,135.75Z" style="fill:#263238"></path><path d="M348.5,145.73a27.34,27.34,0,0,1-3.73,3.64,27.12,27.12,0,0,1,3.36-4,28.13,28.13,0,0,1,3.72-3.65A27,27,0,0,1,348.5,145.73Z" style="fill:#263238"></path><path d="M359.29,156.84a28.26,28.26,0,0,1-4.07,3.26,27.05,27.05,0,0,1,3.74-3.64,27.74,27.74,0,0,1,4.07-3.25A26.65,26.65,0,0,1,359.29,156.84Z" style="fill:#263238"></path><path d="M368.92,169a27.22,27.22,0,0,1-4.38,2.83,27.75,27.75,0,0,1,4.09-3.24,28.09,28.09,0,0,1,4.38-2.83A26.29,26.29,0,0,1,368.92,169Z" style="fill:#263238"></path><path d="M377.28,182a27.23,27.23,0,0,1-4.65,2.37,27.89,27.89,0,0,1,4.4-2.81,27,27,0,0,1,4.64-2.37A27.24,27.24,0,0,1,377.28,182Z" style="fill:#263238"></path><path d="M384.27,195.85a28.45,28.45,0,0,1-4.86,1.9,27.2,27.2,0,0,1,4.66-2.35,26.62,26.62,0,0,1,4.86-1.89A28.54,28.54,0,0,1,384.27,195.85Z" style="fill:#263238"></path><path d="M389.83,210.32a27.58,27.58,0,0,1-5,1.39,27.56,27.56,0,0,1,4.87-1.87,26.6,26.6,0,0,1,5-1.38A28,28,0,0,1,389.83,210.32Z" style="fill:#263238"></path><path d="M393.88,225.27a28.38,28.38,0,0,1-5.14.87,26.2,26.2,0,0,1,5-1.36,27.36,27.36,0,0,1,5.14-.87A28.05,28.05,0,0,1,393.88,225.27Z" style="fill:#263238"></path><path d="M396.4,240.55a27.11,27.11,0,0,1-5.2.35,27.13,27.13,0,0,1,5.14-.84,28.12,28.12,0,0,1,5.2-.35A26.21,26.21,0,0,1,396.4,240.55Z" style="fill:#263238"></path><path d="M397.37,256a27.18,27.18,0,0,1-5.22-.18,28.37,28.37,0,0,1,5.21-.32,27,27,0,0,1,5.21.18A27.29,27.29,0,0,1,397.37,256Z" style="fill:#263238"></path><path d="M218,88.71l-.24.07-.7.16-2.72.57c-1.18.23-2.62.53-4.28.93s-3.57.8-5.64,1.38l-3.27.86c-1.13.31-2.29.68-3.51,1-2.43.69-5,1.57-7.69,2.46-5.36,1.88-11.19,4.16-17.17,6.87s-11.49,5.68-16.42,8.51c-2.44,1.46-4.78,2.82-6.89,4.22-1.06.69-2.1,1.32-3.07,2l-2.79,1.91c-1.79,1.19-3.34,2.37-4.73,3.37s-2.56,1.89-3.51,2.63l-2.2,1.69-.58.42a1,1,0,0,1-.21.14s.05-.07.18-.18l.55-.47,2.14-1.76c.93-.76,2.08-1.69,3.46-2.7s2.91-2.23,4.69-3.44l2.77-1.94c1-.67,2-1.32,3.07-2,2.1-1.41,4.44-2.78,6.88-4.26,4.93-2.86,10.47-5.81,16.44-8.57s11.85-5,17.24-6.85c2.71-.88,5.27-1.75,7.72-2.42,1.22-.35,2.39-.71,3.53-1l3.28-.83c2.08-.56,4-.93,5.67-1.3s3.12-.65,4.31-.85l2.73-.47.71-.11A.6.6,0,0,1,218,88.71Z" style="fill:#fff"></path><path d="M125.12,134.42a19.41,19.41,0,0,1-3.1,3.29,19.11,19.11,0,0,1-3.46,2.9,20,20,0,0,1,3.1-3.28A20,20,0,0,1,125.12,134.42Z" style="fill:#fff"></path><path d="M356.35,385.41a2.91,2.91,0,0,1-.47.5l-1.43,1.37c-1.24,1.18-3.1,2.83-5.44,4.81s-5.21,4.24-8.48,6.65-7,4.9-10.95,7.37-7.9,4.6-11.51,6.46-6.93,3.37-9.76,4.57-5.13,2.11-6.74,2.69l-1.86.66a5.34,5.34,0,0,1-.67.2,3.46,3.46,0,0,1,.63-.3l1.82-.75c1.59-.63,3.88-1.6,6.67-2.84s6.09-2.81,9.69-4.66,7.47-4,11.46-6.48,7.65-5,10.94-7.31,6.16-4.6,8.52-6.55,4.26-3.54,5.54-4.67l1.49-1.29A4.61,4.61,0,0,1,356.35,385.41Z" style="fill:#fff"></path><path d="M369.94,372.24a34.32,34.32,0,0,1-3.94,4.7,35.26,35.26,0,0,1-4.33,4.35,73.91,73.91,0,0,1,8.27-9.05Z" style="fill:#fff"></path></g></svg>
